<mxfile host="app.diagrams.net" modified="2021-11-05T15:16:18.268Z" agent="5.0 (Windows NT 10.0; Win64; x64) AppleWebKit/537.36 (KHTML, like Gecko) Chrome/95.0.4638.69 Safari/537.36" etag="GeZxYZVMvMxc5eG5OeMc" version="15.6.8" type="github" pages="8">
  <diagram id="XlmA86zmoPDfaHWqllxq" name="USE CASE DIAGRAM">
    <mxGraphModel dx="925" dy="437" grid="1" gridSize="10" guides="1" tooltips="1" connect="1" arrows="1" fold="1" page="1" pageScale="1" pageWidth="850" pageHeight="1100" math="0" shadow="0">
      <root>
        <mxCell id="LkaZG4py747y3I-5s54v-0" />
        <mxCell id="LkaZG4py747y3I-5s54v-1" parent="LkaZG4py747y3I-5s54v-0" />
        <UserObject label="" lucidchartObjectId="4yqm_ahR3MDr" id="LkaZG4py747y3I-5s54v-2">
          <mxCell style="html=1;overflow=block;blockSpacing=1;whiteSpace=wrap;container=1;whiteSpace=wrap;fontSize=16.7;fontColor=#333333;spacing=0;strokeColor=#5e5e5e;strokeOpacity=100;fillOpacity=0;rounded=1;absoluteArcSize=1;arcSize=9;fillColor=#000000;strokeWidth=2.3;" parent="LkaZG4py747y3I-5s54v-1" vertex="1">
            <mxGeometry x="140" y="90" width="550" height="800" as="geometry" />
          </mxCell>
        </UserObject>
        <UserObject label="Edit Profil" lucidchartObjectId="dNqm026.Ghfm" id="LkaZG4py747y3I-5s54v-3">
          <mxCell style="html=1;overflow=block;blockSpacing=1;whiteSpace=wrap;ellipse;whiteSpace=wrap;fontSize=13;spacing=3.8;strokeColor=#5e5e5e;strokeOpacity=100;fillOpacity=100;rounded=1;absoluteArcSize=1;arcSize=9;fillColor=#ffffff;strokeWidth=2.3;" parent="LkaZG4py747y3I-5s54v-2" vertex="1">
            <mxGeometry x="271.5662414965986" y="540.000985915493" width="110" height="84.50704225352113" as="geometry" />
          </mxCell>
        </UserObject>
        <UserObject label="" lucidchartObjectId="ZR7ovvaKgF70" id="LkaZG4py747y3I-5s54v-4">
          <mxCell style="html=1;jettySize=18;whiteSpace=wrap;fontSize=13;strokeColor=#5E5E5E;strokeWidth=1.5;rounded=0;startArrow=block;startFill=1;;endArrow=none;;exitX=1;exitY=1;exitDx=0;exitDy=0;" parent="LkaZG4py747y3I-5s54v-2" source="LkaZG4py747y3I-5s54v-6" target="LkaZG4py747y3I-5s54v-3" edge="1">
            <mxGeometry width="100" height="100" relative="1" as="geometry">
              <Array as="points" />
            </mxGeometry>
          </mxCell>
        </UserObject>
        <mxCell id="LkaZG4py747y3I-5s54v-5" value="&amp;lt;&amp;lt;Extend&amp;gt;&amp;gt;" style="text;html=1;resizable=0;labelBackgroundColor=#ffffff;align=center;verticalAlign=middle;fontStyle=1;fontColor=#333333;;fontSize=13.3;" parent="LkaZG4py747y3I-5s54v-4" vertex="1">
          <mxGeometry relative="1" as="geometry" />
        </mxCell>
        <UserObject label="ganti password" lucidchartObjectId="uP7oKWu6r-YK" id="LkaZG4py747y3I-5s54v-6">
          <mxCell style="html=1;overflow=block;blockSpacing=1;whiteSpace=wrap;ellipse;whiteSpace=wrap;fontSize=13;spacing=3.8;strokeColor=#5e5e5e;strokeOpacity=100;fillOpacity=100;rounded=1;absoluteArcSize=1;arcSize=9;fillColor=#ffffff;strokeWidth=2.3;" parent="LkaZG4py747y3I-5s54v-2" vertex="1">
            <mxGeometry x="186.48133503401363" y="430.0032863849765" width="110" height="84.50704225352113" as="geometry" />
          </mxCell>
        </UserObject>
        <UserObject label="Transkrip Nilai" lucidchartObjectId="NHqmS.zqg0.l" id="LkaZG4py747y3I-5s54v-7">
          <mxCell style="html=1;overflow=block;blockSpacing=1;whiteSpace=wrap;ellipse;whiteSpace=wrap;fontSize=13;spacing=3.8;strokeColor=#5e5e5e;strokeOpacity=100;fillOpacity=100;rounded=1;absoluteArcSize=1;arcSize=9;fillColor=#ffffff;strokeWidth=2.3;" parent="LkaZG4py747y3I-5s54v-2" vertex="1">
            <mxGeometry x="275" y="329.9973708920188" width="110" height="84.50704225352113" as="geometry" />
          </mxCell>
        </UserObject>
        <UserObject label="Pembayaran SPP" lucidchartObjectId="2Kqm2jQfE.HW" id="LkaZG4py747y3I-5s54v-8">
          <mxCell style="html=1;overflow=block;blockSpacing=1;whiteSpace=wrap;ellipse;whiteSpace=wrap;fontSize=13;spacing=3.8;strokeColor=#5e5e5e;strokeOpacity=100;fillOpacity=100;rounded=1;absoluteArcSize=1;arcSize=9;fillColor=#ffffff;strokeWidth=2.3;" parent="LkaZG4py747y3I-5s54v-2" vertex="1">
            <mxGeometry x="275" y="690.0029577464788" width="110" height="84.50704225352113" as="geometry" />
          </mxCell>
        </UserObject>
        <UserObject label="Login Akun" lucidchartObjectId="kc7oX~5C2S0e" id="LkaZG4py747y3I-5s54v-9">
          <mxCell style="html=1;overflow=block;blockSpacing=1;whiteSpace=wrap;ellipse;whiteSpace=wrap;fontSize=13;spacing=3.8;strokeColor=#5e5e5e;strokeOpacity=100;fillOpacity=100;rounded=1;absoluteArcSize=1;arcSize=9;fillColor=#ffffff;strokeWidth=2.3;" parent="LkaZG4py747y3I-5s54v-2" vertex="1">
            <mxGeometry x="68.74999999999996" y="70.00239436619711" width="110" height="84.50704225352113" as="geometry" />
          </mxCell>
        </UserObject>
        <UserObject label="Mencatat Kehadiran" lucidchartObjectId="nzqmWbR2zrAX" id="LkaZG4py747y3I-5s54v-10">
          <mxCell style="html=1;overflow=block;blockSpacing=1;whiteSpace=wrap;ellipse;whiteSpace=wrap;fontSize=13;spacing=3.8;strokeColor=#5e5e5e;strokeOpacity=100;fillOpacity=100;rounded=1;absoluteArcSize=1;arcSize=9;fillColor=#ffffff;strokeWidth=2.3;" parent="LkaZG4py747y3I-5s54v-2" vertex="1">
            <mxGeometry x="278.4375" y="220" width="103.12500000000001" height="90" as="geometry" />
          </mxCell>
        </UserObject>
        <UserObject label="Mengelola Tugas" lucidchartObjectId="gzqmBEY87BQ4" id="LkaZG4py747y3I-5s54v-11">
          <mxCell style="html=1;overflow=block;blockSpacing=1;whiteSpace=wrap;ellipse;whiteSpace=wrap;fontSize=13;spacing=3.8;strokeColor=#5e5e5e;strokeOpacity=100;fillOpacity=100;rounded=1;absoluteArcSize=1;arcSize=9;fillColor=#ffffff;strokeWidth=2.3;" parent="LkaZG4py747y3I-5s54v-2" vertex="1">
            <mxGeometry x="278.4375" y="100" width="103.12500000000001" height="90" as="geometry" />
          </mxCell>
        </UserObject>
        <mxCell id="LkaZG4py747y3I-5s54v-12" value="SISTEM AKADEMIK" style="text;html=1;strokeColor=none;fillColor=none;align=center;verticalAlign=middle;whiteSpace=wrap;rounded=0;" parent="LkaZG4py747y3I-5s54v-2" vertex="1">
          <mxGeometry x="214.84375000000003" y="20" width="120.31250000000001" height="30" as="geometry" />
        </mxCell>
        <UserObject label="Mahasiswa" lucidchartObjectId="Jwqmd-3FQhbK" id="LkaZG4py747y3I-5s54v-13">
          <mxCell style="html=1;overflow=block;blockSpacing=1;whiteSpace=wrap;shape=umlActor;labelPosition=center;verticalLabelPosition=bottom;verticalAlign=top;whiteSpace=nowrap;whiteSpace=wrap;fontSize=16.7;fontColor=#333333;spacing=0;strokeColor=#5e5e5e;strokeOpacity=100;rounded=1;absoluteArcSize=1;arcSize=9;strokeWidth=2.3;" parent="LkaZG4py747y3I-5s54v-1" vertex="1">
            <mxGeometry x="20" y="360" width="60" height="135" as="geometry" />
          </mxCell>
        </UserObject>
        <UserObject label="Dosen" lucidchartObjectId="EyqmZ~QgLpZr" id="LkaZG4py747y3I-5s54v-14">
          <mxCell style="html=1;overflow=block;blockSpacing=1;whiteSpace=wrap;shape=umlActor;labelPosition=center;verticalLabelPosition=bottom;verticalAlign=top;whiteSpace=nowrap;whiteSpace=wrap;fontSize=16.7;fontColor=#333333;spacing=0;strokeColor=#5e5e5e;strokeOpacity=100;rounded=1;absoluteArcSize=1;arcSize=9;strokeWidth=2.3;" parent="LkaZG4py747y3I-5s54v-1" vertex="1">
            <mxGeometry x="780" y="300" width="60" height="135" as="geometry" />
          </mxCell>
        </UserObject>
        <UserObject label="" lucidchartObjectId="KBqm2aJAl.7s" id="LkaZG4py747y3I-5s54v-15">
          <mxCell style="html=1;jettySize=18;whiteSpace=wrap;fontSize=13;strokeColor=#5E5E5E;strokeWidth=1.5;rounded=0;startArrow=none;;endArrow=none;;exitX=0.481;exitY=0.438;exitPerimeter=0;entryX=1.009;entryY=0.5;entryPerimeter=0;" parent="LkaZG4py747y3I-5s54v-1" source="LkaZG4py747y3I-5s54v-14" target="LkaZG4py747y3I-5s54v-11" edge="1">
            <mxGeometry width="100" height="100" relative="1" as="geometry">
              <Array as="points" />
            </mxGeometry>
          </mxCell>
        </UserObject>
        <UserObject label="" lucidchartObjectId="3BqmwWqFyiAH" id="LkaZG4py747y3I-5s54v-16">
          <mxCell style="html=1;jettySize=18;whiteSpace=wrap;fontSize=13;strokeColor=#5E5E5E;strokeWidth=1.5;rounded=0;startArrow=none;;endArrow=none;;exitX=0.519;exitY=0.438;exitPerimeter=0;entryX=-0.009;entryY=0.5;entryPerimeter=0;" parent="LkaZG4py747y3I-5s54v-1" source="LkaZG4py747y3I-5s54v-13" target="LkaZG4py747y3I-5s54v-10" edge="1">
            <mxGeometry width="100" height="100" relative="1" as="geometry">
              <Array as="points" />
            </mxGeometry>
          </mxCell>
        </UserObject>
        <UserObject label="" lucidchartObjectId="bCqmCjfR_B15" id="LkaZG4py747y3I-5s54v-17">
          <mxCell style="html=1;jettySize=18;whiteSpace=wrap;fontSize=13;strokeColor=#5E5E5E;strokeWidth=1.5;rounded=0;startArrow=none;;endArrow=none;;exitX=-0.009;exitY=0.5;exitPerimeter=0;entryX=0.519;entryY=0.438;entryPerimeter=0;" parent="LkaZG4py747y3I-5s54v-1" source="LkaZG4py747y3I-5s54v-11" target="LkaZG4py747y3I-5s54v-13" edge="1">
            <mxGeometry width="100" height="100" relative="1" as="geometry">
              <Array as="points" />
            </mxGeometry>
          </mxCell>
        </UserObject>
        <UserObject label="" lucidchartObjectId="DCqmOKdd3pan" id="LkaZG4py747y3I-5s54v-18">
          <mxCell style="html=1;jettySize=18;whiteSpace=wrap;fontSize=13;strokeColor=#5E5E5E;strokeWidth=1.5;rounded=0;startArrow=none;;endArrow=none;;exitX=0.481;exitY=0.438;exitPerimeter=0;entryX=1.009;entryY=0.5;entryPerimeter=0;" parent="LkaZG4py747y3I-5s54v-1" source="LkaZG4py747y3I-5s54v-14" target="LkaZG4py747y3I-5s54v-10" edge="1">
            <mxGeometry width="100" height="100" relative="1" as="geometry">
              <Array as="points" />
            </mxGeometry>
          </mxCell>
        </UserObject>
        <UserObject label="Admin Kemahasiswaan" lucidchartObjectId="PGqmXfOS1Q46" id="LkaZG4py747y3I-5s54v-19">
          <mxCell style="html=1;overflow=block;blockSpacing=1;whiteSpace=wrap;shape=umlActor;labelPosition=center;verticalLabelPosition=bottom;verticalAlign=top;whiteSpace=nowrap;whiteSpace=wrap;fontSize=16.7;fontColor=#333333;spacing=0;strokeColor=#5e5e5e;strokeOpacity=100;rounded=1;absoluteArcSize=1;arcSize=9;strokeWidth=2.3;" parent="LkaZG4py747y3I-5s54v-1" vertex="1">
            <mxGeometry x="780" y="620" width="60" height="130" as="geometry" />
          </mxCell>
        </UserObject>
        <UserObject label="" lucidchartObjectId="uIqmREO0ZBpy" id="LkaZG4py747y3I-5s54v-20">
          <mxCell style="html=1;jettySize=18;whiteSpace=wrap;fontSize=13;strokeColor=#5E5E5E;strokeWidth=1.5;rounded=0;startArrow=none;;endArrow=none;;exitX=0.519;exitY=0.438;exitPerimeter=0;entryX=-0.009;entryY=0.5;entryPerimeter=0;" parent="LkaZG4py747y3I-5s54v-1" source="LkaZG4py747y3I-5s54v-13" target="LkaZG4py747y3I-5s54v-7" edge="1">
            <mxGeometry width="100" height="100" relative="1" as="geometry" />
          </mxCell>
        </UserObject>
        <UserObject label="" lucidchartObjectId="zHqmMCfnqTFo" id="LkaZG4py747y3I-5s54v-21">
          <mxCell style="html=1;jettySize=18;whiteSpace=wrap;fontSize=13;strokeColor=#5E5E5E;strokeWidth=1.5;rounded=0;startArrow=none;;endArrow=none;;exitX=0.481;exitY=0.438;exitPerimeter=0;entryX=1.009;entryY=0.5;entryPerimeter=0;" parent="LkaZG4py747y3I-5s54v-1" source="LkaZG4py747y3I-5s54v-14" target="LkaZG4py747y3I-5s54v-7" edge="1">
            <mxGeometry width="100" height="100" relative="1" as="geometry">
              <Array as="points" />
            </mxGeometry>
          </mxCell>
        </UserObject>
        <UserObject label="" lucidchartObjectId="9KqmUsgFsjPu" id="LkaZG4py747y3I-5s54v-22">
          <mxCell style="html=1;jettySize=18;whiteSpace=wrap;fontSize=13;strokeColor=#5E5E5E;strokeWidth=1.5;rounded=0;startArrow=none;;endArrow=none;;exitX=0.519;exitY=0.438;exitPerimeter=0;entryX=-0.009;entryY=0.5;entryPerimeter=0;" parent="LkaZG4py747y3I-5s54v-1" source="LkaZG4py747y3I-5s54v-13" target="LkaZG4py747y3I-5s54v-8" edge="1">
            <mxGeometry width="100" height="100" relative="1" as="geometry">
              <Array as="points" />
            </mxGeometry>
          </mxCell>
        </UserObject>
        <UserObject label="" lucidchartObjectId="JLqm2BxuVCun" id="LkaZG4py747y3I-5s54v-23">
          <mxCell style="html=1;jettySize=18;whiteSpace=wrap;fontSize=13;strokeColor=#5E5E5E;strokeWidth=1.5;rounded=0;startArrow=none;;endArrow=none;;exitX=0.5;exitY=0.5;exitPerimeter=0;entryX=1.009;entryY=0.5;entryPerimeter=0;exitDx=0;exitDy=0;" parent="LkaZG4py747y3I-5s54v-1" source="LkaZG4py747y3I-5s54v-19" target="LkaZG4py747y3I-5s54v-8" edge="1">
            <mxGeometry width="100" height="100" relative="1" as="geometry">
              <Array as="points" />
            </mxGeometry>
          </mxCell>
        </UserObject>
        <UserObject label="" lucidchartObjectId="EMqmoiB~975-" id="LkaZG4py747y3I-5s54v-24">
          <mxCell style="html=1;jettySize=18;whiteSpace=wrap;fontSize=13;strokeColor=#5E5E5E;strokeWidth=1.5;rounded=0;startArrow=none;;endArrow=none;;exitX=0.519;exitY=0.438;exitPerimeter=0;" parent="LkaZG4py747y3I-5s54v-1" source="LkaZG4py747y3I-5s54v-13" target="LkaZG4py747y3I-5s54v-9" edge="1">
            <mxGeometry width="100" height="100" relative="1" as="geometry">
              <Array as="points" />
            </mxGeometry>
          </mxCell>
        </UserObject>
        <UserObject label="" lucidchartObjectId="mNqm-tzRX-ra" id="LkaZG4py747y3I-5s54v-25">
          <mxCell style="html=1;jettySize=18;whiteSpace=wrap;fontSize=13;strokeColor=#5E5E5E;strokeWidth=1.5;rounded=0;startArrow=none;;endArrow=none;;exitX=0.519;exitY=0.438;exitPerimeter=0;entryX=-0.009;entryY=0.5;entryPerimeter=0;" parent="LkaZG4py747y3I-5s54v-1" source="LkaZG4py747y3I-5s54v-13" target="LkaZG4py747y3I-5s54v-3" edge="1">
            <mxGeometry width="100" height="100" relative="1" as="geometry">
              <Array as="points" />
            </mxGeometry>
          </mxCell>
        </UserObject>
        <UserObject label="" lucidchartObjectId="217ob_7bHd.~" id="LkaZG4py747y3I-5s54v-26">
          <mxCell style="html=1;jettySize=18;whiteSpace=wrap;fontSize=13;strokeColor=#5E5E5E;strokeWidth=1.5;rounded=0;startArrow=none;;endArrow=none;;exitX=-0.009;exitY=0.5;exitPerimeter=0;entryX=0.519;entryY=0.438;entryPerimeter=0;" parent="LkaZG4py747y3I-5s54v-1" source="LkaZG4py747y3I-5s54v-6" target="LkaZG4py747y3I-5s54v-13" edge="1">
            <mxGeometry width="100" height="100" relative="1" as="geometry">
              <Array as="points" />
            </mxGeometry>
          </mxCell>
        </UserObject>
        <mxCell id="LkaZG4py747y3I-5s54v-27" style="rounded=0;orthogonalLoop=1;jettySize=auto;html=1;exitX=1;exitY=0.5;exitDx=0;exitDy=0;endArrow=none;endFill=0;strokeWidth=1.5;entryX=0.5;entryY=0.5;entryDx=0;entryDy=0;entryPerimeter=0;" parent="LkaZG4py747y3I-5s54v-1" source="LkaZG4py747y3I-5s54v-3" target="LkaZG4py747y3I-5s54v-19" edge="1">
          <mxGeometry relative="1" as="geometry">
            <mxPoint x="910" y="690" as="targetPoint" />
          </mxGeometry>
        </mxCell>
      </root>
    </mxGraphModel>
  </diagram>
  <diagram id="fatvrTFAMjXJUbtva_oi" name="DFD LV0">
    <mxGraphModel dx="3263" dy="2091" grid="1" gridSize="10" guides="1" tooltips="1" connect="1" arrows="1" fold="1" page="1" pageScale="1" pageWidth="1169" pageHeight="827" math="0" shadow="0">
      <root>
        <mxCell id="0" />
        <mxCell id="1" parent="0" />
        <UserObject label="&lt;div align=&quot;left&quot;&gt;&lt;ul style=&quot;margin: 0px ; padding-left: 10px ; list-style-position: inside ; list-style-type: disc&quot;&gt;&lt;li style=&quot;color: rgb(51 , 51 , 51) ; font-size: 16.7px&quot;&gt;&lt;span style=&quot;margin-left: 0px ; margin-top: -2px&quot;&gt;&lt;span style=&quot;font-size: 16.7px ; color: #333333&quot;&gt;Memberikan nilai matakuliah&lt;/span&gt;&lt;/span&gt;&lt;/li&gt;&lt;/ul&gt;&lt;/div&gt;" lucidchartObjectId="F67oODxl.qpm" id="tghJi6o-llPgayYjcR82-1">
          <mxCell style="html=1;overflow=block;blockSpacing=1;whiteSpace=wrap;strokeColor=none;fillColor=none;whiteSpace=wrap;fontSize=13;spacing=0;strokeWidth=1.5;align=left;" parent="1" vertex="1">
            <mxGeometry x="-1125" y="-1153" width="234" height="38" as="geometry" />
          </mxCell>
        </UserObject>
        <UserObject label="&lt;ul style=&quot;margin: 0px; padding-left: 10px;list-style-position: inside; list-style-type:disc&quot;&gt;&lt;li style=&quot;text-align:left;color:#333333;font-size:16.7px;&quot;&gt;&lt;span style=&quot;margin-left: 0px;margin-top: -2px;&quot;&gt;&lt;span style=&quot;font-size:16.7px;color:#333333;&quot;&gt;Laporan transkrip nilai&lt;/span&gt;&lt;/span&gt;&lt;/li&gt;&lt;/ul&gt;" lucidchartObjectId="B47oVm5WyCeO" id="tghJi6o-llPgayYjcR82-2">
          <mxCell style="html=1;overflow=block;blockSpacing=1;whiteSpace=wrap;strokeColor=none;fillColor=none;whiteSpace=wrap;fontSize=13;spacing=0;strokeWidth=1.5;" parent="1" vertex="1">
            <mxGeometry x="-1635" y="-860" width="195" height="45" as="geometry" />
          </mxCell>
        </UserObject>
        <UserObject label="&lt;ul style=&quot;margin: 0px; padding-left: 10px;list-style-position: inside; list-style-type:disc&quot;&gt;&lt;li style=&quot;text-align:left;color:#333333;font-size:16.7px;&quot;&gt;&lt;span style=&quot;margin-left: 0px;margin-top: -2px;&quot;&gt;&lt;span style=&quot;font-size:16.7px;color:#333333;&quot;&gt;Mengedit profile&lt;/span&gt;&lt;/span&gt;&lt;/li&gt;&lt;/ul&gt;" lucidchartObjectId="_17ol65jn~Y_" id="tghJi6o-llPgayYjcR82-3">
          <mxCell style="html=1;overflow=block;blockSpacing=1;whiteSpace=wrap;strokeColor=none;fillColor=none;whiteSpace=wrap;fontSize=13;spacing=0;strokeWidth=1.5;" parent="1" vertex="1">
            <mxGeometry x="-1860" y="-1190" width="180" height="45" as="geometry" />
          </mxCell>
        </UserObject>
        <UserObject label="&lt;div align=&quot;center&quot;&gt;&lt;ul style=&quot;margin: 0px ; padding-left: 10px ; list-style-position: inside ; list-style-type: disc&quot;&gt;&lt;li style=&quot;color: rgb(51 , 51 , 51) ; font-size: 16.7px&quot;&gt;&lt;span style=&quot;margin-left: 0px ; margin-top: -2px&quot;&gt;&lt;span style=&quot;font-size: 16.7px ; color: #333333&quot;&gt;Melakukan presensi&lt;/span&gt;&lt;/span&gt;&lt;/li&gt;&lt;/ul&gt;&lt;/div&gt;" lucidchartObjectId="SY7oy2S6Q8mR" id="tghJi6o-llPgayYjcR82-4">
          <mxCell style="html=1;overflow=block;blockSpacing=1;whiteSpace=wrap;strokeColor=none;fillColor=none;whiteSpace=wrap;fontSize=13;spacing=0;strokeWidth=1.5;align=center;" parent="1" vertex="1">
            <mxGeometry x="-1751" y="-1313" width="105" height="45" as="geometry" />
          </mxCell>
        </UserObject>
        <UserObject label="&lt;ul style=&quot;margin: 0px; padding-left: 10px;list-style-position: inside; list-style-type:disc&quot;&gt;&lt;li style=&quot;text-align:left;color:#333333;font-size:16.7px;&quot;&gt;&lt;span style=&quot;margin-left: 0px;margin-top: -2px;&quot;&gt;&lt;span style=&quot;font-size:16.7px;color:#333333;&quot;&gt;Membuka presensi&lt;/span&gt;&lt;/span&gt;&lt;/li&gt;&lt;li style=&quot;text-align:left;color:#333333;font-size:16.7px;&quot;&gt;&lt;span style=&quot;margin-left: 0px;margin-top: -2px;&quot;&gt;&lt;span style=&quot;font-size:16.7px;color:#333333;&quot;&gt;Mengedit presensi&lt;/span&gt;&lt;/span&gt;&lt;/li&gt;&lt;/ul&gt;" lucidchartObjectId="OX7o_uqyM1DQ" id="tghJi6o-llPgayYjcR82-5">
          <mxCell style="html=1;overflow=block;blockSpacing=1;whiteSpace=wrap;strokeColor=none;fillColor=none;whiteSpace=wrap;fontSize=13;spacing=0;strokeWidth=1.5;" parent="1" vertex="1">
            <mxGeometry x="-1560" y="-1460" width="180" height="45" as="geometry" />
          </mxCell>
        </UserObject>
        <UserObject label="&lt;div align=&quot;center&quot;&gt;&lt;ul style=&quot;margin: 0px ; padding-left: 10px ; list-style-position: inside ; list-style-type: disc&quot;&gt;&lt;li style=&quot;color: rgb(51 , 51 , 51) ; font-size: 16.7px&quot;&gt;&lt;span style=&quot;margin-left: 0px ; margin-top: -2px&quot;&gt;&lt;span style=&quot;font-size: 16.7px ; color: #333333&quot;&gt;Menilai tugas&lt;/span&gt;&lt;/span&gt;&lt;/li&gt;&lt;/ul&gt;&lt;/div&gt;" lucidchartObjectId="ZW7ogJcyRJPz" id="tghJi6o-llPgayYjcR82-6">
          <mxCell style="html=1;overflow=block;blockSpacing=1;whiteSpace=wrap;strokeColor=none;fillColor=none;whiteSpace=wrap;fontSize=13;spacing=0;strokeWidth=1.5;align=center;" parent="1" vertex="1">
            <mxGeometry x="-1281" y="-1340" width="90" height="45" as="geometry" />
          </mxCell>
        </UserObject>
        <UserObject label="&lt;ul style=&quot;margin: 0px; padding-left: 10px;list-style-position: inside; list-style-type:disc&quot;&gt;&lt;li style=&quot;text-align:left;color:#333333;font-size:16.7px;&quot;&gt;&lt;span style=&quot;margin-left: 0px;margin-top: -2px;&quot;&gt;&lt;span style=&quot;font-size:16.7px;color:#333333;&quot;&gt;Menerima nilai tugas&lt;/span&gt;&lt;/span&gt;&lt;/li&gt;&lt;li style=&quot;text-align:left;color:#333333;font-size:16.7px;&quot;&gt;&lt;span style=&quot;margin-left: 0px;margin-top: -2px;&quot;&gt;&lt;span style=&quot;font-size:16.7px;color:#333333;&quot;&gt;Menerima tugas&lt;/span&gt;&lt;/span&gt;&lt;/li&gt;&lt;/ul&gt;" lucidchartObjectId="ZW7oOzYWZf9j" id="tghJi6o-llPgayYjcR82-7">
          <mxCell style="html=1;overflow=block;blockSpacing=1;whiteSpace=wrap;strokeColor=none;fillColor=none;whiteSpace=wrap;fontSize=13;spacing=0;strokeWidth=1.5;" parent="1" vertex="1">
            <mxGeometry x="-1545" y="-1115" width="180" height="45" as="geometry" />
          </mxCell>
        </UserObject>
        <UserObject label="&lt;ul style=&quot;margin: 0px; padding-left: 10px;list-style-position: inside; list-style-type:disc&quot;&gt;&lt;li style=&quot;text-align:left;color:#333333;font-size:16.7px;&quot;&gt;&lt;span style=&quot;margin-left: 0px;margin-top: -2px;&quot;&gt;&lt;span style=&quot;font-size:16.7px;color:#333333;&quot;&gt;Mengumpulkan tugas&lt;/span&gt;&lt;/span&gt;&lt;/li&gt;&lt;/ul&gt;" lucidchartObjectId="ZW7ogd~jAGgq" id="tghJi6o-llPgayYjcR82-8">
          <mxCell style="html=1;overflow=block;blockSpacing=1;whiteSpace=wrap;strokeColor=none;fillColor=none;whiteSpace=wrap;fontSize=13;spacing=0;strokeWidth=1.5;" parent="1" vertex="1">
            <mxGeometry x="-1545" y="-1220" width="180" height="45" as="geometry" />
          </mxCell>
        </UserObject>
        <UserObject label="&lt;div align=&quot;left&quot;&gt;&lt;ul style=&quot;margin: 0px ; padding-left: 10px ; list-style-position: inside ; list-style-type: disc&quot;&gt;&lt;li style=&quot;color: rgb(51 , 51 , 51) ; font-size: 16.7px&quot;&gt;&lt;span style=&quot;margin-left: 0px ; margin-top: -2px&quot;&gt;&lt;span style=&quot;font-size: 16.7px ; color: #333333&quot;&gt;Memberikan tugas&lt;/span&gt;&lt;/span&gt;&lt;/li&gt;&lt;li style=&quot;color: rgb(51 , 51 , 51) ; font-size: 16.7px&quot;&gt;&lt;span style=&quot;margin-left: 0px ; margin-top: -2px&quot;&gt;&lt;span style=&quot;font-size: 16.7px ; color: #333333&quot;&gt;Memberikan nilai tugas&lt;/span&gt;&lt;/span&gt;&lt;/li&gt;&lt;/ul&gt;&lt;/div&gt;" lucidchartObjectId="ZW7oNXXfT4RZ" id="tghJi6o-llPgayYjcR82-9">
          <mxCell style="html=1;overflow=block;blockSpacing=1;whiteSpace=wrap;strokeColor=none;fillColor=none;whiteSpace=wrap;fontSize=13;spacing=0;strokeWidth=1.5;align=left;" parent="1" vertex="1">
            <mxGeometry x="-1545" y="-1323" width="204" height="45" as="geometry" />
          </mxCell>
        </UserObject>
        <UserObject label="Mengelola Tugas" lucidchartObjectId="ZW7owx4TDlL4" id="tghJi6o-llPgayYjcR82-10">
          <mxCell style="html=1;overflow=block;blockSpacing=1;whiteSpace=wrap;ellipse;whiteSpace=wrap;fontSize=16.7;fontColor=#333333;spacing=0;strokeColor=#5e5e5e;strokeOpacity=100;rounded=1;absoluteArcSize=1;arcSize=9;strokeWidth=2.3;" parent="1" vertex="1">
            <mxGeometry x="-1380" y="-1220" width="135" height="135" as="geometry" />
          </mxCell>
        </UserObject>
        <mxCell id="H6pVCJNjKWXywIvom-xI-4" style="edgeStyle=orthogonalEdgeStyle;rounded=0;orthogonalLoop=1;jettySize=auto;html=1;exitX=0;exitY=0.75;exitDx=0;exitDy=0;entryX=1;entryY=0.5;entryDx=0;entryDy=0;" parent="1" source="tghJi6o-llPgayYjcR82-11" target="tghJi6o-llPgayYjcR82-38" edge="1">
          <mxGeometry relative="1" as="geometry" />
        </mxCell>
        <mxCell id="H6pVCJNjKWXywIvom-xI-7" style="edgeStyle=orthogonalEdgeStyle;rounded=0;orthogonalLoop=1;jettySize=auto;html=1;exitX=0.25;exitY=1;exitDx=0;exitDy=0;entryX=0.5;entryY=0;entryDx=0;entryDy=0;" parent="1" source="tghJi6o-llPgayYjcR82-11" target="H6pVCJNjKWXywIvom-xI-5" edge="1">
          <mxGeometry relative="1" as="geometry" />
        </mxCell>
        <UserObject label="Mahasiswa" lucidchartObjectId="ZW7ooDRBCHhA" id="tghJi6o-llPgayYjcR82-11">
          <mxCell style="html=1;overflow=block;blockSpacing=1;whiteSpace=wrap;;whiteSpace=wrap;fontSize=16.7;fontColor=#333333;spacing=0;strokeColor=#5e5e5e;strokeOpacity=100;rounded=1;absoluteArcSize=1;arcSize=9;strokeWidth=2.3;" parent="1" vertex="1">
            <mxGeometry x="-1710" y="-1205" width="135" height="105" as="geometry" />
          </mxCell>
        </UserObject>
        <UserObject label="Dosen" lucidchartObjectId="ZW7opd.OD0ao" id="tghJi6o-llPgayYjcR82-12">
          <mxCell style="html=1;overflow=block;blockSpacing=1;whiteSpace=wrap;;whiteSpace=wrap;fontSize=16.7;fontColor=#333333;spacing=0;strokeColor=#5e5e5e;strokeOpacity=100;rounded=1;absoluteArcSize=1;arcSize=9;strokeWidth=2.3;" parent="1" vertex="1">
            <mxGeometry x="-1380" y="-1460" width="135" height="105" as="geometry" />
          </mxCell>
        </UserObject>
        <UserObject label="" lucidchartObjectId="ZW7oj.yVMEG7" id="tghJi6o-llPgayYjcR82-13">
          <mxCell style="html=1;jettySize=18;whiteSpace=wrap;overflow=block;blockSpacing=1;fontSize=13;strokeColor=#5E5E5E;strokeWidth=1.5;rounded=1;arcSize=12;edgeStyle=orthogonalEdgeStyle;startArrow=none;;endArrow=block;endFill=1;;exitX=1.008;exitY=0.267;exitPerimeter=0;entryX=0.025;entryY=0.319;entryPerimeter=0;" parent="1" source="tghJi6o-llPgayYjcR82-11" target="tghJi6o-llPgayYjcR82-10" edge="1">
            <mxGeometry width="100" height="100" relative="1" as="geometry">
              <Array as="points" />
            </mxGeometry>
          </mxCell>
        </UserObject>
        <UserObject label="" lucidchartObjectId="ZW7o~ReY5d_5" id="tghJi6o-llPgayYjcR82-14">
          <mxCell style="html=1;jettySize=18;whiteSpace=wrap;overflow=block;blockSpacing=1;fontSize=13;strokeColor=#5E5E5E;strokeWidth=1.5;rounded=1;arcSize=12;edgeStyle=orthogonalEdgeStyle;startArrow=none;;endArrow=block;endFill=1;;exitX=0.022;exitY=0.672;exitPerimeter=0;entryX=1.008;entryY=0.721;entryPerimeter=0;" parent="1" source="tghJi6o-llPgayYjcR82-10" target="tghJi6o-llPgayYjcR82-11" edge="1">
            <mxGeometry width="100" height="100" relative="1" as="geometry">
              <Array as="points" />
            </mxGeometry>
          </mxCell>
        </UserObject>
        <UserObject label="" lucidchartObjectId="ZW7o93ScQhaq" id="tghJi6o-llPgayYjcR82-15">
          <mxCell style="html=1;jettySize=18;whiteSpace=wrap;overflow=block;blockSpacing=1;fontSize=13;strokeColor=#5E5E5E;strokeWidth=1.5;rounded=1;arcSize=12;edgeStyle=orthogonalEdgeStyle;startArrow=none;;endArrow=block;endFill=1;;exitX=0.267;exitY=1.011;exitPerimeter=0;entryX=0.267;entryY=0.048;entryPerimeter=0;" parent="1" source="tghJi6o-llPgayYjcR82-12" target="tghJi6o-llPgayYjcR82-10" edge="1">
            <mxGeometry width="100" height="100" relative="1" as="geometry">
              <Array as="points" />
            </mxGeometry>
          </mxCell>
        </UserObject>
        <UserObject label="" lucidchartObjectId="ZW7oOHp0A0Dw" id="tghJi6o-llPgayYjcR82-16">
          <mxCell style="html=1;jettySize=18;whiteSpace=wrap;overflow=block;blockSpacing=1;fontSize=13;strokeColor=#5E5E5E;strokeWidth=1.5;rounded=1;arcSize=12;edgeStyle=orthogonalEdgeStyle;startArrow=none;;endArrow=block;endFill=1;;exitX=0.692;exitY=0.029;exitPerimeter=0;entryX=0.692;entryY=1.011;entryPerimeter=0;" parent="1" source="tghJi6o-llPgayYjcR82-10" target="tghJi6o-llPgayYjcR82-12" edge="1">
            <mxGeometry width="100" height="100" relative="1" as="geometry">
              <Array as="points" />
            </mxGeometry>
          </mxCell>
        </UserObject>
        <UserObject label="dbTugas" lucidchartObjectId="ZW7oFcs1QSjB" id="tghJi6o-llPgayYjcR82-17">
          <mxCell style="html=1;overflow=block;blockSpacing=1;whiteSpace=wrap;shape=partialRectangle;right=0;left=0;whiteSpace=wrap;fontSize=16.7;fontColor=#333333;spacing=0;strokeColor=#5e5e5e;strokeOpacity=100;rounded=1;absoluteArcSize=1;arcSize=9;strokeWidth=2.3;" parent="1" vertex="1">
            <mxGeometry x="-1387" y="-1016" width="150" height="75" as="geometry" />
          </mxCell>
        </UserObject>
        <UserObject label="" lucidchartObjectId="ZW7oEJ57oPve" id="tghJi6o-llPgayYjcR82-18">
          <mxCell style="html=1;jettySize=18;whiteSpace=wrap;overflow=block;blockSpacing=1;fontSize=13;strokeColor=#5E5E5E;strokeWidth=1.5;rounded=1;arcSize=12;edgeStyle=orthogonalEdgeStyle;startArrow=block;startFill=1;;endArrow=block;endFill=1;;exitX=0.5;exitY=1.008;exitPerimeter=0;entryX=0.5;entryY=-0.015;entryPerimeter=0;" parent="1" source="tghJi6o-llPgayYjcR82-10" target="tghJi6o-llPgayYjcR82-17" edge="1">
            <mxGeometry width="100" height="100" relative="1" as="geometry">
              <Array as="points" />
            </mxGeometry>
          </mxCell>
        </UserObject>
        <mxCell id="tghJi6o-llPgayYjcR82-19" value="Tugas" style="text;html=1;resizable=0;labelBackgroundColor=#ffffff;align=center;verticalAlign=middle;fontStyle=1;fontColor=#333333;;fontSize=13.3;" parent="tghJi6o-llPgayYjcR82-18" vertex="1">
          <mxGeometry x="-0.42190045924512665" relative="1" as="geometry" />
        </mxCell>
        <UserObject label="Mencatat kehadiran" lucidchartObjectId="ZW7oflszUTOf" id="tghJi6o-llPgayYjcR82-20">
          <mxCell style="html=1;overflow=block;blockSpacing=1;whiteSpace=wrap;ellipse;whiteSpace=wrap;fontSize=16.7;fontColor=#333333;spacing=0;strokeColor=#5e5e5e;strokeOpacity=100;rounded=1;absoluteArcSize=1;arcSize=9;strokeWidth=2.3;" parent="1" vertex="1">
            <mxGeometry x="-1710" y="-1475" width="135" height="135" as="geometry" />
          </mxCell>
        </UserObject>
        <UserObject label="" lucidchartObjectId="ZW7oFqssQghP" id="tghJi6o-llPgayYjcR82-21">
          <mxCell style="html=1;jettySize=18;whiteSpace=wrap;fontSize=13;strokeColor=#5E5E5E;strokeWidth=1.5;rounded=1;arcSize=12;edgeStyle=orthogonalEdgeStyle;startArrow=none;;endArrow=block;endFill=1;;exitX=-0.008;exitY=0.5;exitPerimeter=0;entryX=1.008;entryY=0.5;entryPerimeter=0;" parent="1" source="tghJi6o-llPgayYjcR82-12" target="tghJi6o-llPgayYjcR82-20" edge="1">
            <mxGeometry width="100" height="100" relative="1" as="geometry">
              <Array as="points" />
            </mxGeometry>
          </mxCell>
        </UserObject>
        <UserObject label="" lucidchartObjectId="RY7odli1I-~l" id="tghJi6o-llPgayYjcR82-22">
          <mxCell style="html=1;jettySize=18;whiteSpace=wrap;fontSize=13;strokeColor=#5E5E5E;strokeWidth=1.5;rounded=1;arcSize=12;edgeStyle=orthogonalEdgeStyle;startArrow=none;;endArrow=block;endFill=1;;exitX=0.5;exitY=-0.011;exitPerimeter=0;entryX=0.5;entryY=1.008;entryPerimeter=0;" parent="1" source="tghJi6o-llPgayYjcR82-11" target="tghJi6o-llPgayYjcR82-20" edge="1">
            <mxGeometry width="100" height="100" relative="1" as="geometry">
              <Array as="points" />
            </mxGeometry>
          </mxCell>
        </UserObject>
        <UserObject label="dbPresensi" lucidchartObjectId="C07oB_2d0Hz3" id="tghJi6o-llPgayYjcR82-23">
          <mxCell style="html=1;overflow=block;blockSpacing=1;whiteSpace=wrap;shape=partialRectangle;right=0;left=0;whiteSpace=wrap;fontSize=16.7;fontColor=#333333;spacing=0;strokeColor=#5e5e5e;strokeOpacity=100;rounded=1;absoluteArcSize=1;arcSize=9;strokeWidth=2.3;" parent="1" vertex="1">
            <mxGeometry x="-1717" y="-1610" width="150" height="75" as="geometry" />
          </mxCell>
        </UserObject>
        <UserObject label="" lucidchartObjectId="S07oSoPJRHyk" id="tghJi6o-llPgayYjcR82-24">
          <mxCell style="html=1;jettySize=18;whiteSpace=wrap;fontSize=13;strokeColor=#5E5E5E;strokeWidth=1.5;rounded=1;arcSize=12;edgeStyle=orthogonalEdgeStyle;startArrow=block;startFill=1;;endArrow=block;endFill=1;;exitX=0.5;exitY=-0.008;exitPerimeter=0;entryX=0.5;entryY=1.015;entryPerimeter=0;" parent="1" source="tghJi6o-llPgayYjcR82-20" target="tghJi6o-llPgayYjcR82-23" edge="1">
            <mxGeometry width="100" height="100" relative="1" as="geometry">
              <Array as="points" />
            </mxGeometry>
          </mxCell>
        </UserObject>
        <mxCell id="tghJi6o-llPgayYjcR82-25" value="Presensi" style="text;html=1;resizable=0;labelBackgroundColor=#ffffff;align=center;verticalAlign=middle;fontStyle=1;fontColor=#333333;;fontSize=13.3;" parent="tghJi6o-llPgayYjcR82-24" vertex="1">
          <mxGeometry relative="1" as="geometry" />
        </mxCell>
        <UserObject label="Edit Profile" lucidchartObjectId="u17oh7h-dZiP" id="tghJi6o-llPgayYjcR82-26">
          <mxCell style="html=1;overflow=block;blockSpacing=1;whiteSpace=wrap;ellipse;whiteSpace=wrap;fontSize=16.7;fontColor=#333333;spacing=0;strokeColor=#5e5e5e;strokeOpacity=100;rounded=1;absoluteArcSize=1;arcSize=9;strokeWidth=2.3;" parent="1" vertex="1">
            <mxGeometry x="-2010" y="-1220" width="135" height="135" as="geometry" />
          </mxCell>
        </UserObject>
        <UserObject label="" lucidchartObjectId="H17oLmeqpAmC" id="tghJi6o-llPgayYjcR82-27">
          <mxCell style="html=1;jettySize=18;whiteSpace=wrap;fontSize=13;strokeColor=#5E5E5E;strokeWidth=1.5;rounded=1;arcSize=12;edgeStyle=orthogonalEdgeStyle;startArrow=none;;endArrow=block;endFill=1;;exitX=-0.008;exitY=0.5;exitPerimeter=0;entryX=1.008;entryY=0.5;entryPerimeter=0;" parent="1" source="tghJi6o-llPgayYjcR82-11" target="tghJi6o-llPgayYjcR82-26" edge="1">
            <mxGeometry width="100" height="100" relative="1" as="geometry">
              <Array as="points" />
            </mxGeometry>
          </mxCell>
        </UserObject>
        <UserObject label="dbProfile" lucidchartObjectId="w27o8zYO7qZE" id="tghJi6o-llPgayYjcR82-28">
          <mxCell style="html=1;overflow=block;blockSpacing=1;whiteSpace=wrap;shape=partialRectangle;right=0;left=0;whiteSpace=wrap;fontSize=16.7;fontColor=#333333;spacing=0;strokeColor=#5e5e5e;strokeOpacity=100;rounded=1;absoluteArcSize=1;arcSize=9;strokeWidth=2.3;" parent="1" vertex="1">
            <mxGeometry x="-2017" y="-1377" width="150" height="75" as="geometry" />
          </mxCell>
        </UserObject>
        <UserObject label="" lucidchartObjectId="y27oqnJ_1~mR" id="tghJi6o-llPgayYjcR82-29">
          <mxCell style="html=1;jettySize=18;whiteSpace=wrap;fontSize=13;strokeColor=#5E5E5E;strokeWidth=1.5;rounded=1;arcSize=12;edgeStyle=orthogonalEdgeStyle;startArrow=block;startFill=1;;endArrow=block;endFill=1;;exitX=0.5;exitY=-0.008;exitPerimeter=0;entryX=0.5;entryY=1.015;entryPerimeter=0;" parent="1" source="tghJi6o-llPgayYjcR82-26" target="tghJi6o-llPgayYjcR82-28" edge="1">
            <mxGeometry width="100" height="100" relative="1" as="geometry">
              <Array as="points" />
            </mxGeometry>
          </mxCell>
        </UserObject>
        <mxCell id="tghJi6o-llPgayYjcR82-30" value="Profile" style="text;html=1;resizable=0;labelBackgroundColor=#ffffff;align=center;verticalAlign=middle;fontStyle=1;fontColor=#333333;;fontSize=13.3;" parent="tghJi6o-llPgayYjcR82-29" vertex="1">
          <mxGeometry relative="1" as="geometry" />
        </mxCell>
        <UserObject label="Transkrip Nilai" lucidchartObjectId="O37omM-.e-UD" id="tghJi6o-llPgayYjcR82-31">
          <mxCell style="html=1;overflow=block;blockSpacing=1;whiteSpace=wrap;ellipse;whiteSpace=wrap;fontSize=16.7;fontColor=#333333;spacing=0;strokeColor=#5e5e5e;strokeOpacity=100;rounded=1;absoluteArcSize=1;arcSize=9;strokeWidth=2.3;" parent="1" vertex="1">
            <mxGeometry x="-1380" y="-875" width="135" height="135" as="geometry" />
          </mxCell>
        </UserObject>
        <UserObject label="" lucidchartObjectId="t47orkbk_1ss" id="tghJi6o-llPgayYjcR82-32">
          <mxCell style="html=1;jettySize=18;whiteSpace=wrap;fontSize=13;strokeColor=#5E5E5E;strokeWidth=1.5;rounded=1;arcSize=12;edgeStyle=orthogonalEdgeStyle;startArrow=none;;endArrow=block;endFill=1;;exitX=-0.008;exitY=0.5;exitPerimeter=0;entryX=0.5;entryY=1.011;entryPerimeter=0;" parent="1" source="tghJi6o-llPgayYjcR82-31" target="tghJi6o-llPgayYjcR82-11" edge="1">
            <mxGeometry width="100" height="100" relative="1" as="geometry">
              <Array as="points" />
            </mxGeometry>
          </mxCell>
        </UserObject>
        <UserObject label="" lucidchartObjectId="W47opWPsnxgS" id="tghJi6o-llPgayYjcR82-33">
          <mxCell style="html=1;jettySize=18;whiteSpace=wrap;fontSize=13;strokeColor=#5E5E5E;strokeWidth=1.5;rounded=1;arcSize=12;edgeStyle=orthogonalEdgeStyle;startArrow=none;;endArrow=block;endFill=1;;exitX=1.008;exitY=0.5;exitPerimeter=0;entryX=1.008;entryY=0.5;entryPerimeter=0;" parent="1" source="tghJi6o-llPgayYjcR82-12" target="tghJi6o-llPgayYjcR82-31" edge="1">
            <mxGeometry width="100" height="100" relative="1" as="geometry">
              <Array as="points">
                <mxPoint x="-1132" y="-1407" />
                <mxPoint x="-1132" y="-808" />
              </Array>
            </mxGeometry>
          </mxCell>
        </UserObject>
        <UserObject label="dbTranskrip" lucidchartObjectId="o77oe8ZWzdHi" id="tghJi6o-llPgayYjcR82-34">
          <mxCell style="html=1;overflow=block;blockSpacing=1;whiteSpace=wrap;shape=partialRectangle;right=0;left=0;whiteSpace=wrap;fontSize=16.7;fontColor=#333333;spacing=0;strokeColor=#5e5e5e;strokeOpacity=100;rounded=1;absoluteArcSize=1;arcSize=9;strokeWidth=2.3;" parent="1" vertex="1">
            <mxGeometry x="-1380" y="-680" width="150" height="75" as="geometry" />
          </mxCell>
        </UserObject>
        <UserObject label="" lucidchartObjectId="z77oHy7~HQN2" id="tghJi6o-llPgayYjcR82-35">
          <mxCell style="html=1;jettySize=18;whiteSpace=wrap;fontSize=13;strokeColor=#5E5E5E;strokeWidth=1.5;rounded=1;arcSize=12;edgeStyle=orthogonalEdgeStyle;startArrow=block;startFill=1;;endArrow=block;endFill=1;;exitX=0.5;exitY=1.008;exitPerimeter=0;entryX=0.45;entryY=-0.015;entryPerimeter=0;" parent="1" source="tghJi6o-llPgayYjcR82-31" target="tghJi6o-llPgayYjcR82-34" edge="1">
            <mxGeometry width="100" height="100" relative="1" as="geometry">
              <Array as="points" />
            </mxGeometry>
          </mxCell>
        </UserObject>
        <mxCell id="tghJi6o-llPgayYjcR82-36" value="Transkrip" style="text;html=1;resizable=0;labelBackgroundColor=#ffffff;align=center;verticalAlign=middle;fontStyle=1;fontColor=#333333;;fontSize=13.3;" parent="tghJi6o-llPgayYjcR82-35" vertex="1">
          <mxGeometry x="-0.14289187388883584" relative="1" as="geometry" />
        </mxCell>
        <mxCell id="tghJi6o-llPgayYjcR82-44" style="edgeStyle=orthogonalEdgeStyle;rounded=0;orthogonalLoop=1;jettySize=auto;html=1;entryX=0;entryY=0.5;entryDx=0;entryDy=0;" parent="1" source="tghJi6o-llPgayYjcR82-37" target="tghJi6o-llPgayYjcR82-26" edge="1">
          <mxGeometry relative="1" as="geometry">
            <Array as="points">
              <mxPoint x="-2212" y="-1152" />
            </Array>
          </mxGeometry>
        </mxCell>
        <mxCell id="H6pVCJNjKWXywIvom-xI-3" style="edgeStyle=orthogonalEdgeStyle;rounded=0;orthogonalLoop=1;jettySize=auto;html=1;" parent="1" source="tghJi6o-llPgayYjcR82-37" target="tghJi6o-llPgayYjcR82-38" edge="1">
          <mxGeometry relative="1" as="geometry" />
        </mxCell>
        <UserObject label="Admin Kemahasiswaan" lucidchartObjectId="E97oBelPyP44" id="tghJi6o-llPgayYjcR82-37">
          <mxCell style="html=1;overflow=block;blockSpacing=1;whiteSpace=wrap;;whiteSpace=wrap;fontSize=16.7;fontColor=#333333;spacing=0;strokeColor=#5e5e5e;strokeOpacity=100;rounded=1;absoluteArcSize=1;arcSize=9;strokeWidth=2.3;" parent="1" vertex="1">
            <mxGeometry x="-2290" y="-1040" width="135" height="105" as="geometry" />
          </mxCell>
        </UserObject>
        <UserObject label="Pembayran SPP" lucidchartObjectId="Q97oMl0Rv77M" id="tghJi6o-llPgayYjcR82-38">
          <mxCell style="html=1;overflow=block;blockSpacing=1;whiteSpace=wrap;ellipse;whiteSpace=wrap;fontSize=16.7;fontColor=#333333;spacing=0;strokeColor=#5e5e5e;strokeOpacity=100;rounded=1;absoluteArcSize=1;arcSize=9;strokeWidth=2.3;" parent="1" vertex="1">
            <mxGeometry x="-2010" y="-1050" width="130" height="125" as="geometry" />
          </mxCell>
        </UserObject>
        <mxCell id="tghJi6o-llPgayYjcR82-43" value="&lt;div align=&quot;center&quot;&gt;&lt;ul style=&quot;margin: 0px ; padding-left: 10px ; list-style-position: inside ; list-style-type: disc&quot;&gt;&lt;li style=&quot;color: rgb(51 , 51 , 51) ; font-size: 16.7px&quot;&gt;&lt;span style=&quot;margin-left: 0px ; margin-top: -2px&quot;&gt;&lt;span style=&quot;font-size: 16.7px ; color: #333333&quot;&gt;Membayar SPP&lt;br&gt;&lt;/span&gt;&lt;/span&gt;&lt;/li&gt;&lt;/ul&gt;&lt;/div&gt;" style="text;whiteSpace=wrap;html=1;align=center;" parent="1" vertex="1">
          <mxGeometry x="-1920" y="-1080" width="139" height="30" as="geometry" />
        </mxCell>
        <mxCell id="tghJi6o-llPgayYjcR82-45" value="&lt;div align=&quot;center&quot;&gt;&lt;ul style=&quot;margin: 0px ; padding-left: 10px ; list-style-position: inside ; list-style-type: disc&quot;&gt;&lt;li style=&quot;color: rgb(51 , 51 , 51) ; font-size: 16.7px&quot;&gt;&lt;span style=&quot;margin-left: 0px ; margin-top: -2px&quot;&gt;&lt;span style=&quot;font-size: 16.7px ; color: #333333&quot;&gt;Mengubah status mahasiswa aktif&lt;br&gt;&lt;/span&gt;&lt;/span&gt;&lt;/li&gt;&lt;/ul&gt;&lt;/div&gt;" style="text;whiteSpace=wrap;html=1;" parent="1" vertex="1">
          <mxGeometry x="-2210" y="-1205" width="160" height="30" as="geometry" />
        </mxCell>
        <mxCell id="tghJi6o-llPgayYjcR82-50" value="&lt;div align=&quot;center&quot;&gt;&lt;ul style=&quot;margin: 0px ; padding-left: 10px ; list-style-position: inside ; list-style-type: disc&quot;&gt;&lt;li style=&quot;color: rgb(51 , 51 , 51) ; font-size: 16.7px&quot;&gt;&lt;span style=&quot;margin-left: 0px ; margin-top: -2px&quot;&gt;&lt;span style=&quot;font-size: 16.7px ; color: #333333&quot;&gt;Memverifikasi pembayaran&lt;br&gt;&lt;/span&gt;&lt;/span&gt;&lt;/li&gt;&lt;/ul&gt;&lt;/div&gt;" style="text;whiteSpace=wrap;html=1;align=center;" parent="1" vertex="1">
          <mxGeometry x="-2150" y="-1040" width="155" height="30" as="geometry" />
        </mxCell>
        <mxCell id="H6pVCJNjKWXywIvom-xI-5" value="Login" style="ellipse;whiteSpace=wrap;html=1;aspect=fixed;" parent="1" vertex="1">
          <mxGeometry x="-1790" y="-955" width="95" height="95" as="geometry" />
        </mxCell>
        <mxCell id="H6pVCJNjKWXywIvom-xI-8" value="&lt;div&gt;- Username&lt;/div&gt;&lt;div&gt;- Pasword&lt;br&gt;&lt;/div&gt;" style="text;html=1;align=center;verticalAlign=middle;resizable=0;points=[];autosize=1;strokeColor=none;fillColor=none;" parent="1" vertex="1">
          <mxGeometry x="-1760" y="-1065" width="80" height="30" as="geometry" />
        </mxCell>
      </root>
    </mxGraphModel>
  </diagram>
  <diagram id="TduHplMcY-klA1fRTNC_" name="DFD LV1 Proses 1">
    <mxGraphModel dx="925" dy="437" grid="1" gridSize="10" guides="1" tooltips="1" connect="1" arrows="1" fold="1" page="1" pageScale="1" pageWidth="1169" pageHeight="827" math="0" shadow="0">
      <root>
        <mxCell id="Nyh4O6MvXoS33FgQ7Ns7-0" />
        <mxCell id="Nyh4O6MvXoS33FgQ7Ns7-1" parent="Nyh4O6MvXoS33FgQ7Ns7-0" />
        <mxCell id="sn5b2Y7knmfeveHpD_K--45" style="edgeStyle=orthogonalEdgeStyle;rounded=0;orthogonalLoop=1;jettySize=auto;html=1;startArrow=none;startFill=0;endArrow=classic;endFill=1;" parent="Nyh4O6MvXoS33FgQ7Ns7-1" source="sn5b2Y7knmfeveHpD_K--10" target="sn5b2Y7knmfeveHpD_K--44" edge="1">
          <mxGeometry relative="1" as="geometry" />
        </mxCell>
        <UserObject label="Mahasiswa" lucidchartObjectId="ZW7ooDRBCHhA" id="sn5b2Y7knmfeveHpD_K--10">
          <mxCell style="html=1;overflow=block;blockSpacing=1;whiteSpace=wrap;;whiteSpace=wrap;fontSize=16.7;fontColor=#333333;spacing=0;strokeColor=#5e5e5e;strokeOpacity=100;rounded=1;absoluteArcSize=1;arcSize=9;strokeWidth=2.3;" parent="Nyh4O6MvXoS33FgQ7Ns7-1" vertex="1">
            <mxGeometry x="370" y="510" width="135" height="105" as="geometry" />
          </mxCell>
        </UserObject>
        <mxCell id="sn5b2Y7knmfeveHpD_K--52" style="edgeStyle=orthogonalEdgeStyle;rounded=0;orthogonalLoop=1;jettySize=auto;html=1;entryX=1;entryY=0.5;entryDx=0;entryDy=0;startArrow=none;startFill=0;endArrow=classic;endFill=1;" parent="Nyh4O6MvXoS33FgQ7Ns7-1" source="sn5b2Y7knmfeveHpD_K--11" target="sn5b2Y7knmfeveHpD_K--51" edge="1">
          <mxGeometry relative="1" as="geometry" />
        </mxCell>
        <mxCell id="sn5b2Y7knmfeveHpD_K--59" style="edgeStyle=orthogonalEdgeStyle;rounded=0;orthogonalLoop=1;jettySize=auto;html=1;entryX=1;entryY=0.5;entryDx=0;entryDy=0;startArrow=none;startFill=0;endArrow=classic;endFill=1;" parent="Nyh4O6MvXoS33FgQ7Ns7-1" source="sn5b2Y7knmfeveHpD_K--11" target="sn5b2Y7knmfeveHpD_K--58" edge="1">
          <mxGeometry relative="1" as="geometry">
            <Array as="points">
              <mxPoint x="1030" y="220" />
            </Array>
          </mxGeometry>
        </mxCell>
        <UserObject label="Dosen" lucidchartObjectId="ZW7opd.OD0ao" id="sn5b2Y7knmfeveHpD_K--11">
          <mxCell style="html=1;overflow=block;blockSpacing=1;whiteSpace=wrap;;whiteSpace=wrap;fontSize=16.7;fontColor=#333333;spacing=0;strokeColor=#5e5e5e;strokeOpacity=100;rounded=1;absoluteArcSize=1;arcSize=9;strokeWidth=2.3;" parent="Nyh4O6MvXoS33FgQ7Ns7-1" vertex="1">
            <mxGeometry x="950" y="305" width="135" height="105" as="geometry" />
          </mxCell>
        </UserObject>
        <mxCell id="sn5b2Y7knmfeveHpD_K--49" style="edgeStyle=orthogonalEdgeStyle;rounded=0;orthogonalLoop=1;jettySize=auto;html=1;startArrow=none;startFill=0;endArrow=classic;endFill=1;" parent="Nyh4O6MvXoS33FgQ7Ns7-1" source="sn5b2Y7knmfeveHpD_K--16" target="sn5b2Y7knmfeveHpD_K--11" edge="1">
          <mxGeometry relative="1" as="geometry" />
        </mxCell>
        <mxCell id="sn5b2Y7knmfeveHpD_K--56" style="edgeStyle=orthogonalEdgeStyle;rounded=0;orthogonalLoop=1;jettySize=auto;html=1;entryX=0.75;entryY=0;entryDx=0;entryDy=0;startArrow=none;startFill=0;endArrow=classic;endFill=1;exitX=0.013;exitY=0.64;exitDx=0;exitDy=0;exitPerimeter=0;" parent="Nyh4O6MvXoS33FgQ7Ns7-1" source="sn5b2Y7knmfeveHpD_K--16" target="sn5b2Y7knmfeveHpD_K--10" edge="1">
          <mxGeometry relative="1" as="geometry" />
        </mxCell>
        <mxCell id="sn5b2Y7knmfeveHpD_K--63" style="edgeStyle=orthogonalEdgeStyle;rounded=0;orthogonalLoop=1;jettySize=auto;html=1;exitX=0;exitY=0.25;exitDx=0;exitDy=0;startArrow=none;startFill=0;endArrow=classic;endFill=1;" parent="Nyh4O6MvXoS33FgQ7Ns7-1" source="sn5b2Y7knmfeveHpD_K--16" target="sn5b2Y7knmfeveHpD_K--10" edge="1">
          <mxGeometry relative="1" as="geometry" />
        </mxCell>
        <UserObject label="dbTugas" lucidchartObjectId="ZW7oFcs1QSjB" id="sn5b2Y7knmfeveHpD_K--16">
          <mxCell style="html=1;overflow=block;blockSpacing=1;whiteSpace=wrap;shape=partialRectangle;right=0;left=0;whiteSpace=wrap;fontSize=16.7;fontColor=#333333;spacing=0;strokeColor=#5e5e5e;strokeOpacity=100;rounded=1;absoluteArcSize=1;arcSize=9;strokeWidth=2.3;" parent="Nyh4O6MvXoS33FgQ7Ns7-1" vertex="1">
            <mxGeometry x="605" y="320" width="150" height="75" as="geometry" />
          </mxCell>
        </UserObject>
        <mxCell id="sn5b2Y7knmfeveHpD_K--47" style="edgeStyle=orthogonalEdgeStyle;rounded=0;orthogonalLoop=1;jettySize=auto;html=1;entryX=0.5;entryY=1;entryDx=0;entryDy=0;startArrow=none;startFill=0;endArrow=classic;endFill=1;" parent="Nyh4O6MvXoS33FgQ7Ns7-1" source="sn5b2Y7knmfeveHpD_K--44" target="sn5b2Y7knmfeveHpD_K--16" edge="1">
          <mxGeometry relative="1" as="geometry" />
        </mxCell>
        <mxCell id="sn5b2Y7knmfeveHpD_K--44" value="&lt;div align=&quot;center&quot;&gt;Pengumpulan Tugas&lt;/div&gt;" style="ellipse;whiteSpace=wrap;html=1;aspect=fixed;align=center;" parent="Nyh4O6MvXoS33FgQ7Ns7-1" vertex="1">
          <mxGeometry x="630" y="512.5" width="100" height="100" as="geometry" />
        </mxCell>
        <mxCell id="sn5b2Y7knmfeveHpD_K--46" value="Jawaban_Tugas" style="text;html=1;align=center;verticalAlign=middle;resizable=0;points=[];autosize=1;strokeColor=none;fillColor=none;" parent="Nyh4O6MvXoS33FgQ7Ns7-1" vertex="1">
          <mxGeometry x="505" y="540" width="110" height="20" as="geometry" />
        </mxCell>
        <mxCell id="sn5b2Y7knmfeveHpD_K--48" value="Jawaban_Tugas" style="text;html=1;align=center;verticalAlign=middle;resizable=0;points=[];autosize=1;strokeColor=none;fillColor=none;" parent="Nyh4O6MvXoS33FgQ7Ns7-1" vertex="1">
          <mxGeometry x="570" y="445" width="110" height="20" as="geometry" />
        </mxCell>
        <mxCell id="sn5b2Y7knmfeveHpD_K--50" value="Jawaban_Tugas" style="text;html=1;align=center;verticalAlign=middle;resizable=0;points=[];autosize=1;strokeColor=none;fillColor=none;" parent="Nyh4O6MvXoS33FgQ7Ns7-1" vertex="1">
          <mxGeometry x="785" y="330" width="110" height="20" as="geometry" />
        </mxCell>
        <mxCell id="sn5b2Y7knmfeveHpD_K--54" style="edgeStyle=orthogonalEdgeStyle;rounded=0;orthogonalLoop=1;jettySize=auto;html=1;entryX=1;entryY=0.75;entryDx=0;entryDy=0;startArrow=none;startFill=0;endArrow=classic;endFill=1;" parent="Nyh4O6MvXoS33FgQ7Ns7-1" source="sn5b2Y7knmfeveHpD_K--51" target="sn5b2Y7knmfeveHpD_K--16" edge="1">
          <mxGeometry relative="1" as="geometry" />
        </mxCell>
        <mxCell id="sn5b2Y7knmfeveHpD_K--51" value="&lt;div align=&quot;center&quot;&gt;List Tugas&lt;/div&gt;" style="ellipse;whiteSpace=wrap;html=1;aspect=fixed;align=center;" parent="Nyh4O6MvXoS33FgQ7Ns7-1" vertex="1">
          <mxGeometry x="865" y="515" width="100" height="100" as="geometry" />
        </mxCell>
        <mxCell id="sn5b2Y7knmfeveHpD_K--53" value="Tugas" style="text;html=1;align=center;verticalAlign=middle;resizable=0;points=[];autosize=1;strokeColor=none;fillColor=none;" parent="Nyh4O6MvXoS33FgQ7Ns7-1" vertex="1">
          <mxGeometry x="1030" y="470" width="50" height="20" as="geometry" />
        </mxCell>
        <mxCell id="sn5b2Y7knmfeveHpD_K--55" value="Tugas" style="text;html=1;align=center;verticalAlign=middle;resizable=0;points=[];autosize=1;strokeColor=none;fillColor=none;" parent="Nyh4O6MvXoS33FgQ7Ns7-1" vertex="1">
          <mxGeometry x="810" y="470" width="50" height="20" as="geometry" />
        </mxCell>
        <mxCell id="sn5b2Y7knmfeveHpD_K--57" value="Tugas" style="text;html=1;align=center;verticalAlign=middle;resizable=0;points=[];autosize=1;strokeColor=none;fillColor=none;" parent="Nyh4O6MvXoS33FgQ7Ns7-1" vertex="1">
          <mxGeometry x="465" y="430" width="50" height="20" as="geometry" />
        </mxCell>
        <mxCell id="sn5b2Y7knmfeveHpD_K--61" style="edgeStyle=orthogonalEdgeStyle;rounded=0;orthogonalLoop=1;jettySize=auto;html=1;entryX=0.5;entryY=0;entryDx=0;entryDy=0;startArrow=none;startFill=0;endArrow=classic;endFill=1;" parent="Nyh4O6MvXoS33FgQ7Ns7-1" source="sn5b2Y7knmfeveHpD_K--58" target="sn5b2Y7knmfeveHpD_K--16" edge="1">
          <mxGeometry relative="1" as="geometry" />
        </mxCell>
        <mxCell id="sn5b2Y7knmfeveHpD_K--58" value="Nilai" style="ellipse;whiteSpace=wrap;html=1;aspect=fixed;align=center;" parent="Nyh4O6MvXoS33FgQ7Ns7-1" vertex="1">
          <mxGeometry x="847.5" y="180" width="80" height="80" as="geometry" />
        </mxCell>
        <mxCell id="sn5b2Y7knmfeveHpD_K--60" value="Nilai Tugas" style="text;html=1;align=center;verticalAlign=middle;resizable=0;points=[];autosize=1;strokeColor=none;fillColor=none;" parent="Nyh4O6MvXoS33FgQ7Ns7-1" vertex="1">
          <mxGeometry x="960" y="200" width="80" height="20" as="geometry" />
        </mxCell>
        <mxCell id="sn5b2Y7knmfeveHpD_K--62" value="Nilai Tugas" style="text;html=1;align=center;verticalAlign=middle;resizable=0;points=[];autosize=1;strokeColor=none;fillColor=none;" parent="Nyh4O6MvXoS33FgQ7Ns7-1" vertex="1">
          <mxGeometry x="700" y="200" width="80" height="20" as="geometry" />
        </mxCell>
        <mxCell id="sn5b2Y7knmfeveHpD_K--64" value="Nilai Tugas" style="text;html=1;align=center;verticalAlign=middle;resizable=0;points=[];autosize=1;strokeColor=none;fillColor=none;" parent="Nyh4O6MvXoS33FgQ7Ns7-1" vertex="1">
          <mxGeometry x="450" y="320" width="80" height="20" as="geometry" />
        </mxCell>
      </root>
    </mxGraphModel>
  </diagram>
  <diagram id="ArnLJJHaKOjCJN8TZcFI" name="DFD LV1 Proses 2">
    <mxGraphModel dx="1902" dy="1019" grid="1" gridSize="10" guides="1" tooltips="1" connect="1" arrows="1" fold="1" page="1" pageScale="1" pageWidth="1169" pageHeight="827" math="0" shadow="0">
      <root>
        <mxCell id="6OKEg1ICKt2TaK_P5W7V-0" />
        <mxCell id="6OKEg1ICKt2TaK_P5W7V-1" parent="6OKEg1ICKt2TaK_P5W7V-0" />
        <mxCell id="qKMssEOJr5w-deNHk0A4-0" style="edgeStyle=orthogonalEdgeStyle;rounded=0;orthogonalLoop=1;jettySize=auto;html=1;startArrow=none;startFill=0;endArrow=classic;endFill=1;" parent="6OKEg1ICKt2TaK_P5W7V-1" source="qKMssEOJr5w-deNHk0A4-1" target="qKMssEOJr5w-deNHk0A4-10" edge="1">
          <mxGeometry relative="1" as="geometry" />
        </mxCell>
        <UserObject label="Mahasiswa" lucidchartObjectId="ZW7ooDRBCHhA" id="qKMssEOJr5w-deNHk0A4-1">
          <mxCell style="html=1;overflow=block;blockSpacing=1;whiteSpace=wrap;;whiteSpace=wrap;fontSize=16.7;fontColor=#333333;spacing=0;strokeColor=#5e5e5e;strokeOpacity=100;rounded=1;absoluteArcSize=1;arcSize=9;strokeWidth=2.3;" parent="6OKEg1ICKt2TaK_P5W7V-1" vertex="1">
            <mxGeometry x="180" y="423.75" width="135" height="105" as="geometry" />
          </mxCell>
        </UserObject>
        <mxCell id="qKMssEOJr5w-deNHk0A4-2" style="edgeStyle=orthogonalEdgeStyle;rounded=0;orthogonalLoop=1;jettySize=auto;html=1;entryX=1;entryY=0.5;entryDx=0;entryDy=0;startArrow=none;startFill=0;endArrow=classic;endFill=1;" parent="6OKEg1ICKt2TaK_P5W7V-1" source="qKMssEOJr5w-deNHk0A4-4" target="qKMssEOJr5w-deNHk0A4-15" edge="1">
          <mxGeometry relative="1" as="geometry" />
        </mxCell>
        <mxCell id="viahaQU9190e00A4fuZT-3" style="edgeStyle=orthogonalEdgeStyle;rounded=0;orthogonalLoop=1;jettySize=auto;html=1;entryX=1;entryY=0.5;entryDx=0;entryDy=0;startArrow=none;startFill=0;endArrow=classic;endFill=1;" parent="6OKEg1ICKt2TaK_P5W7V-1" source="qKMssEOJr5w-deNHk0A4-4" target="viahaQU9190e00A4fuZT-2" edge="1">
          <mxGeometry relative="1" as="geometry">
            <Array as="points">
              <mxPoint x="870" y="125" />
            </Array>
          </mxGeometry>
        </mxCell>
        <UserObject label="Dosen" lucidchartObjectId="ZW7opd.OD0ao" id="qKMssEOJr5w-deNHk0A4-4">
          <mxCell style="html=1;overflow=block;blockSpacing=1;whiteSpace=wrap;;whiteSpace=wrap;fontSize=16.7;fontColor=#333333;spacing=0;strokeColor=#5e5e5e;strokeOpacity=100;rounded=1;absoluteArcSize=1;arcSize=9;strokeWidth=2.3;" parent="6OKEg1ICKt2TaK_P5W7V-1" vertex="1">
            <mxGeometry x="807" y="225" width="135" height="105" as="geometry" />
          </mxCell>
        </UserObject>
        <mxCell id="qKMssEOJr5w-deNHk0A4-5" style="edgeStyle=orthogonalEdgeStyle;rounded=0;orthogonalLoop=1;jettySize=auto;html=1;startArrow=none;startFill=0;endArrow=classic;endFill=1;" parent="6OKEg1ICKt2TaK_P5W7V-1" source="qKMssEOJr5w-deNHk0A4-8" target="qKMssEOJr5w-deNHk0A4-4" edge="1">
          <mxGeometry relative="1" as="geometry" />
        </mxCell>
        <mxCell id="viahaQU9190e00A4fuZT-0" style="edgeStyle=orthogonalEdgeStyle;rounded=0;orthogonalLoop=1;jettySize=auto;html=1;entryX=0.5;entryY=0;entryDx=0;entryDy=0;startArrow=none;startFill=0;endArrow=classic;endFill=1;" parent="6OKEg1ICKt2TaK_P5W7V-1" source="qKMssEOJr5w-deNHk0A4-8" target="qKMssEOJr5w-deNHk0A4-1" edge="1">
          <mxGeometry relative="1" as="geometry" />
        </mxCell>
        <UserObject label="dbPresensi" lucidchartObjectId="ZW7oFcs1QSjB" id="qKMssEOJr5w-deNHk0A4-8">
          <mxCell style="html=1;overflow=block;blockSpacing=1;whiteSpace=wrap;shape=partialRectangle;right=0;left=0;whiteSpace=wrap;fontSize=16.7;fontColor=#333333;spacing=0;strokeColor=#5e5e5e;strokeOpacity=100;rounded=1;absoluteArcSize=1;arcSize=9;strokeWidth=2.3;" parent="6OKEg1ICKt2TaK_P5W7V-1" vertex="1">
            <mxGeometry x="462" y="240" width="150" height="75" as="geometry" />
          </mxCell>
        </UserObject>
        <mxCell id="qKMssEOJr5w-deNHk0A4-9" style="edgeStyle=orthogonalEdgeStyle;rounded=0;orthogonalLoop=1;jettySize=auto;html=1;entryX=0.5;entryY=1;entryDx=0;entryDy=0;startArrow=none;startFill=0;endArrow=classic;endFill=1;" parent="6OKEg1ICKt2TaK_P5W7V-1" source="qKMssEOJr5w-deNHk0A4-10" target="qKMssEOJr5w-deNHk0A4-8" edge="1">
          <mxGeometry relative="1" as="geometry" />
        </mxCell>
        <mxCell id="qKMssEOJr5w-deNHk0A4-10" value="Mahasiswa mengubah status kehadiran" style="ellipse;whiteSpace=wrap;html=1;aspect=fixed;align=center;" parent="6OKEg1ICKt2TaK_P5W7V-1" vertex="1">
          <mxGeometry x="480.75" y="420" width="112.5" height="112.5" as="geometry" />
        </mxCell>
        <mxCell id="qKMssEOJr5w-deNHk0A4-13" value="Rekap_Presensi" style="text;html=1;align=center;verticalAlign=middle;resizable=0;points=[];autosize=1;strokeColor=none;fillColor=none;" parent="6OKEg1ICKt2TaK_P5W7V-1" vertex="1">
          <mxGeometry x="642" y="250" width="110" height="20" as="geometry" />
        </mxCell>
        <mxCell id="qKMssEOJr5w-deNHk0A4-14" style="edgeStyle=orthogonalEdgeStyle;rounded=0;orthogonalLoop=1;jettySize=auto;html=1;entryX=1;entryY=0.75;entryDx=0;entryDy=0;startArrow=none;startFill=0;endArrow=classic;endFill=1;" parent="6OKEg1ICKt2TaK_P5W7V-1" source="qKMssEOJr5w-deNHk0A4-15" target="qKMssEOJr5w-deNHk0A4-8" edge="1">
          <mxGeometry relative="1" as="geometry" />
        </mxCell>
        <mxCell id="qKMssEOJr5w-deNHk0A4-15" value="Membuka Presensi" style="ellipse;whiteSpace=wrap;html=1;aspect=fixed;align=center;" parent="6OKEg1ICKt2TaK_P5W7V-1" vertex="1">
          <mxGeometry x="722" y="435" width="100" height="100" as="geometry" />
        </mxCell>
        <mxCell id="viahaQU9190e00A4fuZT-1" value="Data_presensi" style="text;html=1;align=center;verticalAlign=middle;resizable=0;points=[];autosize=1;strokeColor=none;fillColor=none;" parent="6OKEg1ICKt2TaK_P5W7V-1" vertex="1">
          <mxGeometry x="280" y="250" width="100" height="20" as="geometry" />
        </mxCell>
        <mxCell id="viahaQU9190e00A4fuZT-4" style="edgeStyle=orthogonalEdgeStyle;rounded=0;orthogonalLoop=1;jettySize=auto;html=1;startArrow=none;startFill=0;endArrow=classic;endFill=1;" parent="6OKEg1ICKt2TaK_P5W7V-1" source="viahaQU9190e00A4fuZT-2" target="qKMssEOJr5w-deNHk0A4-8" edge="1">
          <mxGeometry relative="1" as="geometry" />
        </mxCell>
        <mxCell id="viahaQU9190e00A4fuZT-2" value="Mengubah status presensi" style="ellipse;whiteSpace=wrap;html=1;aspect=fixed;align=center;" parent="6OKEg1ICKt2TaK_P5W7V-1" vertex="1">
          <mxGeometry x="660" y="80" width="90" height="90" as="geometry" />
        </mxCell>
        <mxCell id="Us8XhFjvG9ZZDcdb8nC1-0" value="nilaiKehadiran" style="text;html=1;align=center;verticalAlign=middle;resizable=0;points=[];autosize=1;strokeColor=none;fillColor=none;" parent="6OKEg1ICKt2TaK_P5W7V-1" vertex="1">
          <mxGeometry x="355" y="480" width="100" height="20" as="geometry" />
        </mxCell>
        <mxCell id="Us8XhFjvG9ZZDcdb8nC1-1" value="&lt;div&gt;- openTime&lt;/div&gt;&lt;div&gt;- closeTime&lt;br&gt;&lt;/div&gt;" style="text;html=1;align=center;verticalAlign=middle;resizable=0;points=[];autosize=1;strokeColor=none;fillColor=none;" parent="6OKEg1ICKt2TaK_P5W7V-1" vertex="1">
          <mxGeometry x="880" y="390" width="80" height="30" as="geometry" />
        </mxCell>
        <mxCell id="Us8XhFjvG9ZZDcdb8nC1-2" value="nilaiKehadiran" style="text;html=1;align=center;verticalAlign=middle;resizable=0;points=[];autosize=1;strokeColor=none;fillColor=none;" parent="6OKEg1ICKt2TaK_P5W7V-1" vertex="1">
          <mxGeometry x="440" y="360" width="100" height="20" as="geometry" />
        </mxCell>
        <mxCell id="Us8XhFjvG9ZZDcdb8nC1-5" value="nilaiKehadiran" style="text;html=1;align=center;verticalAlign=middle;resizable=0;points=[];autosize=1;strokeColor=none;fillColor=none;" parent="6OKEg1ICKt2TaK_P5W7V-1" vertex="1">
          <mxGeometry x="870" y="170" width="100" height="20" as="geometry" />
        </mxCell>
        <mxCell id="Us8XhFjvG9ZZDcdb8nC1-6" value="nilaiKehadiran" style="text;html=1;align=center;verticalAlign=middle;resizable=0;points=[];autosize=1;strokeColor=none;fillColor=none;" parent="6OKEg1ICKt2TaK_P5W7V-1" vertex="1">
          <mxGeometry x="542" y="100" width="100" height="20" as="geometry" />
        </mxCell>
        <mxCell id="Us8XhFjvG9ZZDcdb8nC1-7" value="&lt;div&gt;- openTime&lt;/div&gt;&lt;div&gt;- closeTime&lt;br&gt;&lt;/div&gt;" style="text;html=1;align=center;verticalAlign=middle;resizable=0;points=[];autosize=1;strokeColor=none;fillColor=none;" parent="6OKEg1ICKt2TaK_P5W7V-1" vertex="1">
          <mxGeometry x="672" y="350" width="80" height="30" as="geometry" />
        </mxCell>
      </root>
    </mxGraphModel>
  </diagram>
  <diagram id="XefO-5H4u1UJdeWSAgS4" name="DFD LV1 Proses3">
    <mxGraphModel dx="1902" dy="1019" grid="1" gridSize="10" guides="1" tooltips="1" connect="1" arrows="1" fold="1" page="1" pageScale="1" pageWidth="1169" pageHeight="827" math="0" shadow="0">
      <root>
        <mxCell id="NDHGj5lk1Y80TSuCBh3D-0" />
        <mxCell id="NDHGj5lk1Y80TSuCBh3D-1" parent="NDHGj5lk1Y80TSuCBh3D-0" />
        <mxCell id="RA04DHCk-sofn14XPwew-1" style="edgeStyle=orthogonalEdgeStyle;rounded=0;orthogonalLoop=1;jettySize=auto;html=1;entryX=0;entryY=0.5;entryDx=0;entryDy=0;startArrow=none;startFill=0;endArrow=classic;endFill=1;" parent="NDHGj5lk1Y80TSuCBh3D-1" source="Gq2eO7v3ZxjGIh0KdAJO-1" target="RA04DHCk-sofn14XPwew-0" edge="1">
          <mxGeometry relative="1" as="geometry" />
        </mxCell>
        <UserObject label="Mahasiswa" lucidchartObjectId="ZW7ooDRBCHhA" id="Gq2eO7v3ZxjGIh0KdAJO-1">
          <mxCell style="html=1;overflow=block;blockSpacing=1;whiteSpace=wrap;;whiteSpace=wrap;fontSize=16.7;fontColor=#333333;spacing=0;strokeColor=#5e5e5e;strokeOpacity=100;rounded=1;absoluteArcSize=1;arcSize=9;strokeWidth=2.3;" parent="NDHGj5lk1Y80TSuCBh3D-1" vertex="1">
            <mxGeometry x="200" y="517.5" width="135" height="105" as="geometry" />
          </mxCell>
        </UserObject>
        <mxCell id="RA04DHCk-sofn14XPwew-7" style="edgeStyle=orthogonalEdgeStyle;rounded=0;orthogonalLoop=1;jettySize=auto;html=1;entryX=1;entryY=0.5;entryDx=0;entryDy=0;startArrow=none;startFill=0;endArrow=classic;endFill=1;" parent="NDHGj5lk1Y80TSuCBh3D-1" source="Gq2eO7v3ZxjGIh0KdAJO-4" target="RA04DHCk-sofn14XPwew-5" edge="1">
          <mxGeometry relative="1" as="geometry">
            <Array as="points">
              <mxPoint x="978" y="386" />
            </Array>
          </mxGeometry>
        </mxCell>
        <UserObject label="Dosen" lucidchartObjectId="ZW7opd.OD0ao" id="Gq2eO7v3ZxjGIh0KdAJO-4">
          <mxCell style="html=1;overflow=block;blockSpacing=1;whiteSpace=wrap;;whiteSpace=wrap;fontSize=16.7;fontColor=#333333;spacing=0;strokeColor=#5e5e5e;strokeOpacity=100;rounded=1;absoluteArcSize=1;arcSize=9;strokeWidth=2.3;" parent="NDHGj5lk1Y80TSuCBh3D-1" vertex="1">
            <mxGeometry x="910" y="490" width="135" height="105" as="geometry" />
          </mxCell>
        </UserObject>
        <mxCell id="SBH6ymGLC9vnbh36h2q--2" style="edgeStyle=orthogonalEdgeStyle;rounded=0;orthogonalLoop=1;jettySize=auto;html=1;startArrow=none;startFill=0;endArrow=classic;endFill=1;" parent="NDHGj5lk1Y80TSuCBh3D-1" source="Gq2eO7v3ZxjGIh0KdAJO-7" target="Gq2eO7v3ZxjGIh0KdAJO-1" edge="1">
          <mxGeometry relative="1" as="geometry" />
        </mxCell>
        <UserObject label="dbTranskrip" lucidchartObjectId="ZW7oFcs1QSjB" id="Gq2eO7v3ZxjGIh0KdAJO-7">
          <mxCell style="html=1;overflow=block;blockSpacing=1;whiteSpace=wrap;shape=partialRectangle;right=0;left=0;whiteSpace=wrap;fontSize=16.7;fontColor=#333333;spacing=0;strokeColor=#5e5e5e;strokeOpacity=100;rounded=1;absoluteArcSize=1;arcSize=9;strokeWidth=2.3;" parent="NDHGj5lk1Y80TSuCBh3D-1" vertex="1">
            <mxGeometry x="520" y="348.75" width="150" height="75" as="geometry" />
          </mxCell>
        </UserObject>
        <mxCell id="RA04DHCk-sofn14XPwew-9" style="edgeStyle=orthogonalEdgeStyle;rounded=0;orthogonalLoop=1;jettySize=auto;html=1;entryX=0;entryY=0.5;entryDx=0;entryDy=0;startArrow=none;startFill=0;endArrow=classic;endFill=1;exitX=0.5;exitY=0;exitDx=0;exitDy=0;" parent="NDHGj5lk1Y80TSuCBh3D-1" source="Gq2eO7v3ZxjGIh0KdAJO-23" target="Gq2eO7v3ZxjGIh0KdAJO-4" edge="1">
          <mxGeometry relative="1" as="geometry">
            <Array as="points">
              <mxPoint x="775" y="543" />
            </Array>
          </mxGeometry>
        </mxCell>
        <UserObject label="dbTugas" lucidchartObjectId="ZW7oFcs1QSjB" id="Gq2eO7v3ZxjGIh0KdAJO-23">
          <mxCell style="html=1;overflow=block;blockSpacing=1;whiteSpace=wrap;shape=partialRectangle;right=0;left=0;whiteSpace=wrap;fontSize=16.7;fontColor=#333333;spacing=0;strokeColor=#5e5e5e;strokeOpacity=100;rounded=1;absoluteArcSize=1;arcSize=9;strokeWidth=2.3;" parent="NDHGj5lk1Y80TSuCBh3D-1" vertex="1">
            <mxGeometry x="700" y="640" width="150" height="75" as="geometry" />
          </mxCell>
        </UserObject>
        <mxCell id="SBH6ymGLC9vnbh36h2q--3" value="Transkrip" style="text;html=1;align=center;verticalAlign=middle;resizable=0;points=[];autosize=1;strokeColor=none;fillColor=none;" parent="NDHGj5lk1Y80TSuCBh3D-1" vertex="1">
          <mxGeometry x="340" y="360" width="70" height="20" as="geometry" />
        </mxCell>
        <mxCell id="SBH6ymGLC9vnbh36h2q--5" value="&lt;div&gt;- nilaiUAS&lt;/div&gt;&lt;div&gt;- nilaiUTS&lt;/div&gt;&lt;div&gt;- nilaiTugas&lt;br&gt;&lt;/div&gt;" style="text;html=1;align=center;verticalAlign=middle;resizable=0;points=[];autosize=1;strokeColor=none;fillColor=none;" parent="NDHGj5lk1Y80TSuCBh3D-1" vertex="1">
          <mxGeometry x="975" y="383.75" width="90" height="50" as="geometry" />
        </mxCell>
        <mxCell id="RA04DHCk-sofn14XPwew-2" style="edgeStyle=orthogonalEdgeStyle;rounded=0;orthogonalLoop=1;jettySize=auto;html=1;entryX=0.5;entryY=1;entryDx=0;entryDy=0;startArrow=none;startFill=0;endArrow=classic;endFill=1;" parent="NDHGj5lk1Y80TSuCBh3D-1" source="RA04DHCk-sofn14XPwew-0" target="Gq2eO7v3ZxjGIh0KdAJO-7" edge="1">
          <mxGeometry relative="1" as="geometry" />
        </mxCell>
        <mxCell id="RA04DHCk-sofn14XPwew-0" value="Mengunduh Transkip nilai" style="ellipse;whiteSpace=wrap;html=1;aspect=fixed;align=center;" parent="NDHGj5lk1Y80TSuCBh3D-1" vertex="1">
          <mxGeometry x="555" y="530" width="80" height="80" as="geometry" />
        </mxCell>
        <mxCell id="RA04DHCk-sofn14XPwew-3" value="Request" style="text;html=1;align=center;verticalAlign=middle;resizable=0;points=[];autosize=1;strokeColor=none;fillColor=none;" parent="NDHGj5lk1Y80TSuCBh3D-1" vertex="1">
          <mxGeometry x="390" y="540" width="60" height="20" as="geometry" />
        </mxCell>
        <mxCell id="RA04DHCk-sofn14XPwew-4" value="Request" style="text;html=1;align=center;verticalAlign=middle;resizable=0;points=[];autosize=1;strokeColor=none;fillColor=none;" parent="NDHGj5lk1Y80TSuCBh3D-1" vertex="1">
          <mxGeometry x="525" y="460" width="60" height="20" as="geometry" />
        </mxCell>
        <mxCell id="RA04DHCk-sofn14XPwew-6" style="edgeStyle=orthogonalEdgeStyle;rounded=0;orthogonalLoop=1;jettySize=auto;html=1;startArrow=none;startFill=0;endArrow=classic;endFill=1;" parent="NDHGj5lk1Y80TSuCBh3D-1" source="RA04DHCk-sofn14XPwew-5" target="Gq2eO7v3ZxjGIh0KdAJO-7" edge="1">
          <mxGeometry relative="1" as="geometry" />
        </mxCell>
        <mxCell id="RA04DHCk-sofn14XPwew-5" value="Input nilai" style="ellipse;whiteSpace=wrap;html=1;aspect=fixed;align=center;" parent="NDHGj5lk1Y80TSuCBh3D-1" vertex="1">
          <mxGeometry x="810" y="346.25" width="80" height="80" as="geometry" />
        </mxCell>
        <mxCell id="RA04DHCk-sofn14XPwew-10" value="NilaiTugas" style="text;html=1;align=center;verticalAlign=middle;resizable=0;points=[];autosize=1;strokeColor=none;fillColor=none;" parent="NDHGj5lk1Y80TSuCBh3D-1" vertex="1">
          <mxGeometry x="780" y="517.5" width="80" height="20" as="geometry" />
        </mxCell>
        <mxCell id="RA04DHCk-sofn14XPwew-11" value="&lt;div&gt;- nilaiUAS&lt;/div&gt;&lt;div&gt;- nilaiUTS&lt;/div&gt;&lt;div&gt;- nilaiTugas&lt;br&gt;&lt;/div&gt;" style="text;html=1;align=center;verticalAlign=middle;resizable=0;points=[];autosize=1;strokeColor=none;fillColor=none;" parent="NDHGj5lk1Y80TSuCBh3D-1" vertex="1">
          <mxGeometry x="700" y="333.75" width="90" height="50" as="geometry" />
        </mxCell>
      </root>
    </mxGraphModel>
  </diagram>
  <diagram id="bDYxp8BXQBruvWsk1MVd" name="DFD LV1 Proses4">
    <mxGraphModel dx="1902" dy="965" grid="1" gridSize="10" guides="1" tooltips="1" connect="1" arrows="1" fold="1" page="1" pageScale="1" pageWidth="1169" pageHeight="827" math="0" shadow="0">
      <root>
        <mxCell id="j6cwO9pWt0KP39r8mfWq-0" />
        <mxCell id="j6cwO9pWt0KP39r8mfWq-1" parent="j6cwO9pWt0KP39r8mfWq-0" />
        <mxCell id="j6cwO9pWt0KP39r8mfWq-20" style="edgeStyle=orthogonalEdgeStyle;rounded=0;orthogonalLoop=1;jettySize=auto;html=1;entryX=0;entryY=0.5;entryDx=0;entryDy=0;startArrow=none;startFill=0;endArrow=classic;endFill=1;" edge="1" parent="j6cwO9pWt0KP39r8mfWq-1" source="j6cwO9pWt0KP39r8mfWq-10" target="j6cwO9pWt0KP39r8mfWq-19">
          <mxGeometry relative="1" as="geometry">
            <Array as="points">
              <mxPoint x="228" y="665" />
            </Array>
          </mxGeometry>
        </mxCell>
        <mxCell id="doZGWmG1em8fjX1BidUG-0" style="edgeStyle=orthogonalEdgeStyle;rounded=0;orthogonalLoop=1;jettySize=auto;html=1;entryX=0;entryY=0.5;entryDx=0;entryDy=0;startArrow=none;startFill=0;endArrow=classic;endFill=1;" edge="1" parent="j6cwO9pWt0KP39r8mfWq-1" source="j6cwO9pWt0KP39r8mfWq-10" target="j6cwO9pWt0KP39r8mfWq-30">
          <mxGeometry relative="1" as="geometry">
            <Array as="points">
              <mxPoint x="228" y="795" />
            </Array>
          </mxGeometry>
        </mxCell>
        <UserObject label="Admin Kemahasiswaan" lucidchartObjectId="E97oBelPyP44" id="j6cwO9pWt0KP39r8mfWq-10">
          <mxCell style="html=1;overflow=block;blockSpacing=1;whiteSpace=wrap;;whiteSpace=wrap;fontSize=16.7;fontColor=#333333;spacing=0;strokeColor=#5e5e5e;strokeOpacity=100;rounded=1;absoluteArcSize=1;arcSize=9;strokeWidth=2.3;" vertex="1" parent="j6cwO9pWt0KP39r8mfWq-1">
            <mxGeometry x="160" y="470" width="135" height="105" as="geometry" />
          </mxCell>
        </UserObject>
        <mxCell id="j6cwO9pWt0KP39r8mfWq-25" style="edgeStyle=orthogonalEdgeStyle;rounded=0;orthogonalLoop=1;jettySize=auto;html=1;entryX=1;entryY=0.5;entryDx=0;entryDy=0;startArrow=none;startFill=0;endArrow=classic;endFill=1;" edge="1" parent="j6cwO9pWt0KP39r8mfWq-1" source="j6cwO9pWt0KP39r8mfWq-16" target="j6cwO9pWt0KP39r8mfWq-24">
          <mxGeometry relative="1" as="geometry" />
        </mxCell>
        <UserObject label="Mahasiswa" lucidchartObjectId="E97oBelPyP44" id="j6cwO9pWt0KP39r8mfWq-16">
          <mxCell style="html=1;overflow=block;blockSpacing=1;whiteSpace=wrap;;whiteSpace=wrap;fontSize=16.7;fontColor=#333333;spacing=0;strokeColor=#5e5e5e;strokeOpacity=100;rounded=1;absoluteArcSize=1;arcSize=9;strokeWidth=2.3;" vertex="1" parent="j6cwO9pWt0KP39r8mfWq-1">
            <mxGeometry x="780" y="470" width="135" height="105" as="geometry" />
          </mxCell>
        </UserObject>
        <mxCell id="j6cwO9pWt0KP39r8mfWq-23" style="edgeStyle=orthogonalEdgeStyle;rounded=0;orthogonalLoop=1;jettySize=auto;html=1;entryX=0.5;entryY=1;entryDx=0;entryDy=0;startArrow=none;startFill=0;endArrow=classic;endFill=1;" edge="1" parent="j6cwO9pWt0KP39r8mfWq-1" source="j6cwO9pWt0KP39r8mfWq-19" target="j6cwO9pWt0KP39r8mfWq-16">
          <mxGeometry relative="1" as="geometry" />
        </mxCell>
        <mxCell id="j6cwO9pWt0KP39r8mfWq-19" value="Mengirimkan nomor VA" style="ellipse;whiteSpace=wrap;html=1;aspect=fixed;align=center;" vertex="1" parent="j6cwO9pWt0KP39r8mfWq-1">
          <mxGeometry x="360" y="610" width="110" height="110" as="geometry" />
        </mxCell>
        <mxCell id="j6cwO9pWt0KP39r8mfWq-21" value="virtualAccount" style="text;html=1;align=center;verticalAlign=middle;resizable=0;points=[];autosize=1;strokeColor=none;fillColor=none;" vertex="1" parent="j6cwO9pWt0KP39r8mfWq-1">
          <mxGeometry x="242.5" y="640" width="100" height="20" as="geometry" />
        </mxCell>
        <mxCell id="j6cwO9pWt0KP39r8mfWq-22" value="virtualAccount" style="text;html=1;align=center;verticalAlign=middle;resizable=0;points=[];autosize=1;strokeColor=none;fillColor=none;" vertex="1" parent="j6cwO9pWt0KP39r8mfWq-1">
          <mxGeometry x="550" y="670" width="100" height="20" as="geometry" />
        </mxCell>
        <mxCell id="j6cwO9pWt0KP39r8mfWq-28" style="edgeStyle=orthogonalEdgeStyle;rounded=0;orthogonalLoop=1;jettySize=auto;html=1;entryX=1;entryY=0.5;entryDx=0;entryDy=0;startArrow=none;startFill=0;endArrow=classic;endFill=1;" edge="1" parent="j6cwO9pWt0KP39r8mfWq-1" source="j6cwO9pWt0KP39r8mfWq-24" target="j6cwO9pWt0KP39r8mfWq-10">
          <mxGeometry relative="1" as="geometry" />
        </mxCell>
        <mxCell id="j6cwO9pWt0KP39r8mfWq-24" value="Pembayaran VA" style="ellipse;whiteSpace=wrap;html=1;aspect=fixed;align=center;" vertex="1" parent="j6cwO9pWt0KP39r8mfWq-1">
          <mxGeometry x="495" y="477.5" width="90" height="90" as="geometry" />
        </mxCell>
        <mxCell id="j6cwO9pWt0KP39r8mfWq-26" value="nomorTransaksi" style="text;html=1;align=center;verticalAlign=middle;resizable=0;points=[];autosize=1;strokeColor=none;fillColor=none;" vertex="1" parent="j6cwO9pWt0KP39r8mfWq-1">
          <mxGeometry x="630" y="500" width="110" height="20" as="geometry" />
        </mxCell>
        <mxCell id="j6cwO9pWt0KP39r8mfWq-29" value="nomorTransaksi" style="text;html=1;align=center;verticalAlign=middle;resizable=0;points=[];autosize=1;strokeColor=none;fillColor=none;" vertex="1" parent="j6cwO9pWt0KP39r8mfWq-1">
          <mxGeometry x="342.5" y="500" width="110" height="20" as="geometry" />
        </mxCell>
        <mxCell id="doZGWmG1em8fjX1BidUG-1" style="edgeStyle=orthogonalEdgeStyle;rounded=0;orthogonalLoop=1;jettySize=auto;html=1;startArrow=none;startFill=0;endArrow=classic;endFill=1;" edge="1" parent="j6cwO9pWt0KP39r8mfWq-1" source="j6cwO9pWt0KP39r8mfWq-30" target="j6cwO9pWt0KP39r8mfWq-16">
          <mxGeometry relative="1" as="geometry" />
        </mxCell>
        <mxCell id="j6cwO9pWt0KP39r8mfWq-30" value="Mengirimkan Invoice&amp;nbsp; " style="ellipse;whiteSpace=wrap;html=1;aspect=fixed;align=center;" vertex="1" parent="j6cwO9pWt0KP39r8mfWq-1">
          <mxGeometry x="373" y="750" width="90" height="90" as="geometry" />
        </mxCell>
        <mxCell id="doZGWmG1em8fjX1BidUG-2" value="nomorTransaksi" style="text;html=1;align=center;verticalAlign=middle;resizable=0;points=[];autosize=1;strokeColor=none;fillColor=none;" vertex="1" parent="j6cwO9pWt0KP39r8mfWq-1">
          <mxGeometry x="237.5" y="770" width="110" height="20" as="geometry" />
        </mxCell>
        <mxCell id="doZGWmG1em8fjX1BidUG-3" value="nomorTransaksi" style="text;html=1;align=center;verticalAlign=middle;resizable=0;points=[];autosize=1;strokeColor=none;fillColor=none;" vertex="1" parent="j6cwO9pWt0KP39r8mfWq-1">
          <mxGeometry x="585" y="770" width="110" height="20" as="geometry" />
        </mxCell>
      </root>
    </mxGraphModel>
  </diagram>
  <diagram id="kPqODI6IfYTEereTDhWa" name="DFD LV1 Proses5">
    <mxGraphModel dx="1321" dy="624" grid="1" gridSize="10" guides="1" tooltips="1" connect="1" arrows="1" fold="1" page="1" pageScale="1" pageWidth="1169" pageHeight="827" math="0" shadow="0">
      <root>
        <mxCell id="ebMU4DQLJZY_eesiqW59-0" />
        <mxCell id="ebMU4DQLJZY_eesiqW59-1" parent="ebMU4DQLJZY_eesiqW59-0" />
        <mxCell id="hoon6yf5Zem_sgQZUW1o-2" style="edgeStyle=orthogonalEdgeStyle;rounded=0;orthogonalLoop=1;jettySize=auto;html=1;entryX=0.5;entryY=1;entryDx=0;entryDy=0;startArrow=none;startFill=0;endArrow=classic;endFill=1;" parent="ebMU4DQLJZY_eesiqW59-1" source="qvwo-QQsGSWNf0nXJq16-0" target="hoon6yf5Zem_sgQZUW1o-0" edge="1">
          <mxGeometry relative="1" as="geometry" />
        </mxCell>
        <mxCell id="hoon6yf5Zem_sgQZUW1o-7" style="edgeStyle=orthogonalEdgeStyle;rounded=0;orthogonalLoop=1;jettySize=auto;html=1;entryX=1;entryY=0.5;entryDx=0;entryDy=0;startArrow=none;startFill=0;endArrow=classic;endFill=1;" parent="ebMU4DQLJZY_eesiqW59-1" source="qvwo-QQsGSWNf0nXJq16-0" target="hoon6yf5Zem_sgQZUW1o-6" edge="1">
          <mxGeometry relative="1" as="geometry">
            <Array as="points">
              <mxPoint x="940" y="323" />
            </Array>
          </mxGeometry>
        </mxCell>
        <mxCell id="hoon6yf5Zem_sgQZUW1o-13" style="edgeStyle=orthogonalEdgeStyle;rounded=0;orthogonalLoop=1;jettySize=auto;html=1;entryX=1;entryY=0.5;entryDx=0;entryDy=0;startArrow=none;startFill=0;endArrow=classic;endFill=1;" parent="ebMU4DQLJZY_eesiqW59-1" source="qvwo-QQsGSWNf0nXJq16-0" target="hoon6yf5Zem_sgQZUW1o-12" edge="1">
          <mxGeometry relative="1" as="geometry" />
        </mxCell>
        <UserObject label="Mahasiswa" lucidchartObjectId="E97oBelPyP44" id="qvwo-QQsGSWNf0nXJq16-0">
          <mxCell style="html=1;overflow=block;blockSpacing=1;whiteSpace=wrap;;whiteSpace=wrap;fontSize=16.7;fontColor=#333333;spacing=0;strokeColor=#5e5e5e;strokeOpacity=100;rounded=1;absoluteArcSize=1;arcSize=9;strokeWidth=2.3;" parent="ebMU4DQLJZY_eesiqW59-1" vertex="1">
            <mxGeometry x="900" y="415" width="135" height="105" as="geometry" />
          </mxCell>
        </UserObject>
        <mxCell id="hoon6yf5Zem_sgQZUW1o-19" style="edgeStyle=orthogonalEdgeStyle;rounded=0;orthogonalLoop=1;jettySize=auto;html=1;startArrow=none;startFill=0;endArrow=classic;endFill=1;" parent="ebMU4DQLJZY_eesiqW59-1" source="AyCJyeyeZrtRkYESnz3g-0" target="hoon6yf5Zem_sgQZUW1o-18" edge="1">
          <mxGeometry relative="1" as="geometry" />
        </mxCell>
        <UserObject label="dbProfile" lucidchartObjectId="w27o8zYO7qZE" id="AyCJyeyeZrtRkYESnz3g-0">
          <mxCell style="html=1;overflow=block;blockSpacing=1;whiteSpace=wrap;shape=partialRectangle;right=0;left=0;whiteSpace=wrap;fontSize=16.7;fontColor=#333333;spacing=0;strokeColor=#5e5e5e;strokeOpacity=100;rounded=1;absoluteArcSize=1;arcSize=9;strokeWidth=2.3;" parent="ebMU4DQLJZY_eesiqW59-1" vertex="1">
            <mxGeometry x="292.5" y="200" width="150" height="75" as="geometry" />
          </mxCell>
        </UserObject>
        <mxCell id="hoon6yf5Zem_sgQZUW1o-16" style="edgeStyle=orthogonalEdgeStyle;rounded=0;orthogonalLoop=1;jettySize=auto;html=1;entryX=0;entryY=0.5;entryDx=0;entryDy=0;startArrow=none;startFill=0;endArrow=classic;endFill=1;" parent="ebMU4DQLJZY_eesiqW59-1" source="XuQb1-jxSWqx62abE6od-0" target="AyCJyeyeZrtRkYESnz3g-0" edge="1">
          <mxGeometry relative="1" as="geometry">
            <Array as="points">
              <mxPoint x="178" y="238" />
            </Array>
          </mxGeometry>
        </mxCell>
        <UserObject label="Mengubah status mahasiswa" lucidchartObjectId="u17oh7h-dZiP" id="XuQb1-jxSWqx62abE6od-0">
          <mxCell style="html=1;overflow=block;blockSpacing=1;whiteSpace=wrap;ellipse;whiteSpace=wrap;fontSize=16.7;fontColor=#333333;spacing=0;strokeColor=#5e5e5e;strokeOpacity=100;rounded=1;absoluteArcSize=1;arcSize=9;strokeWidth=2.3;" parent="ebMU4DQLJZY_eesiqW59-1" vertex="1">
            <mxGeometry x="122.5" y="292.5" width="110" height="95" as="geometry" />
          </mxCell>
        </UserObject>
        <mxCell id="hoon6yf5Zem_sgQZUW1o-15" style="edgeStyle=orthogonalEdgeStyle;rounded=0;orthogonalLoop=1;jettySize=auto;html=1;startArrow=none;startFill=0;endArrow=classic;endFill=1;" parent="ebMU4DQLJZY_eesiqW59-1" source="XuQb1-jxSWqx62abE6od-1" target="XuQb1-jxSWqx62abE6od-0" edge="1">
          <mxGeometry relative="1" as="geometry" />
        </mxCell>
        <UserObject label="Admin Kemahasiswaan" lucidchartObjectId="E97oBelPyP44" id="XuQb1-jxSWqx62abE6od-1">
          <mxCell style="html=1;overflow=block;blockSpacing=1;whiteSpace=wrap;;whiteSpace=wrap;fontSize=16.7;fontColor=#333333;spacing=0;strokeColor=#5e5e5e;strokeOpacity=100;rounded=1;absoluteArcSize=1;arcSize=9;strokeWidth=2.3;" parent="ebMU4DQLJZY_eesiqW59-1" vertex="1">
            <mxGeometry x="110" y="480" width="135" height="105" as="geometry" />
          </mxCell>
        </UserObject>
        <mxCell id="XuQb1-jxSWqx62abE6od-2" value="mahasiswaStatus" style="text;whiteSpace=wrap;html=1;" parent="ebMU4DQLJZY_eesiqW59-1" vertex="1">
          <mxGeometry x="160" y="210" width="160" height="30" as="geometry" />
        </mxCell>
        <mxCell id="hoon6yf5Zem_sgQZUW1o-4" style="edgeStyle=orthogonalEdgeStyle;rounded=0;orthogonalLoop=1;jettySize=auto;html=1;entryX=1;entryY=0.5;entryDx=0;entryDy=0;startArrow=none;startFill=0;endArrow=classic;endFill=1;" parent="ebMU4DQLJZY_eesiqW59-1" source="hoon6yf5Zem_sgQZUW1o-0" target="AyCJyeyeZrtRkYESnz3g-0" edge="1">
          <mxGeometry relative="1" as="geometry" />
        </mxCell>
        <mxCell id="hoon6yf5Zem_sgQZUW1o-0" value="Mengubah biodata" style="ellipse;whiteSpace=wrap;html=1;aspect=fixed;align=center;" parent="ebMU4DQLJZY_eesiqW59-1" vertex="1">
          <mxGeometry x="922.5" y="192.5" width="90" height="90" as="geometry" />
        </mxCell>
        <mxCell id="hoon6yf5Zem_sgQZUW1o-3" value="&lt;div align=&quot;left&quot;&gt;- alamat&lt;/div&gt;&lt;div align=&quot;left&quot;&gt;- nomor telepon&lt;/div&gt;&lt;div align=&quot;left&quot;&gt;- email&lt;/div&gt;&lt;div align=&quot;left&quot;&gt;- jenisKelamin&lt;/div&gt;&lt;div align=&quot;left&quot;&gt;- Kewarganegaraan&lt;br&gt;&lt;/div&gt;" style="text;html=1;align=left;verticalAlign=middle;resizable=0;points=[];autosize=1;strokeColor=none;fillColor=none;" parent="ebMU4DQLJZY_eesiqW59-1" vertex="1">
          <mxGeometry x="980" y="300" width="130" height="80" as="geometry" />
        </mxCell>
        <mxCell id="hoon6yf5Zem_sgQZUW1o-5" value="&lt;div align=&quot;left&quot;&gt;- alamat&lt;/div&gt;&lt;div align=&quot;left&quot;&gt;- nomor telepon&lt;/div&gt;&lt;div align=&quot;left&quot;&gt;- email&lt;/div&gt;&lt;div align=&quot;left&quot;&gt;- jenisKelamin&lt;/div&gt;&lt;div align=&quot;left&quot;&gt;- Kewarganegaraan&lt;br&gt;&lt;/div&gt;" style="text;html=1;align=left;verticalAlign=middle;resizable=0;points=[];autosize=1;strokeColor=none;fillColor=none;" parent="ebMU4DQLJZY_eesiqW59-1" vertex="1">
          <mxGeometry x="610" y="150" width="130" height="80" as="geometry" />
        </mxCell>
        <mxCell id="hoon6yf5Zem_sgQZUW1o-10" style="edgeStyle=orthogonalEdgeStyle;rounded=0;orthogonalLoop=1;jettySize=auto;html=1;entryX=1;entryY=0.75;entryDx=0;entryDy=0;startArrow=none;startFill=0;endArrow=classic;endFill=1;" parent="ebMU4DQLJZY_eesiqW59-1" source="hoon6yf5Zem_sgQZUW1o-6" target="AyCJyeyeZrtRkYESnz3g-0" edge="1">
          <mxGeometry relative="1" as="geometry" />
        </mxCell>
        <mxCell id="hoon6yf5Zem_sgQZUW1o-6" value="&lt;div align=&quot;center&quot;&gt;Mengubah foto profile&lt;br&gt;&lt;/div&gt;" style="ellipse;whiteSpace=wrap;html=1;aspect=fixed;align=center;" parent="ebMU4DQLJZY_eesiqW59-1" vertex="1">
          <mxGeometry x="760" y="282.5" width="80" height="80" as="geometry" />
        </mxCell>
        <mxCell id="hoon6yf5Zem_sgQZUW1o-8" value="foto" style="text;html=1;align=center;verticalAlign=middle;resizable=0;points=[];autosize=1;strokeColor=none;fillColor=none;" parent="ebMU4DQLJZY_eesiqW59-1" vertex="1">
          <mxGeometry x="882.5" y="300" width="40" height="20" as="geometry" />
        </mxCell>
        <mxCell id="hoon6yf5Zem_sgQZUW1o-11" value="Foto" style="text;html=1;align=center;verticalAlign=middle;resizable=0;points=[];autosize=1;strokeColor=none;fillColor=none;" parent="ebMU4DQLJZY_eesiqW59-1" vertex="1">
          <mxGeometry x="630" y="300" width="40" height="20" as="geometry" />
        </mxCell>
        <mxCell id="hoon6yf5Zem_sgQZUW1o-24" style="edgeStyle=orthogonalEdgeStyle;rounded=0;orthogonalLoop=1;jettySize=auto;html=1;startArrow=none;startFill=0;endArrow=classic;endFill=1;" parent="ebMU4DQLJZY_eesiqW59-1" source="hoon6yf5Zem_sgQZUW1o-12" edge="1">
          <mxGeometry relative="1" as="geometry">
            <mxPoint x="410" y="467.5" as="targetPoint" />
          </mxGeometry>
        </mxCell>
        <mxCell id="hoon6yf5Zem_sgQZUW1o-26" style="edgeStyle=orthogonalEdgeStyle;rounded=0;orthogonalLoop=1;jettySize=auto;html=1;entryX=0.75;entryY=1;entryDx=0;entryDy=0;startArrow=none;startFill=0;endArrow=classic;endFill=1;" parent="ebMU4DQLJZY_eesiqW59-1" source="hoon6yf5Zem_sgQZUW1o-12" target="AyCJyeyeZrtRkYESnz3g-0" edge="1">
          <mxGeometry relative="1" as="geometry">
            <Array as="points">
              <mxPoint x="670" y="410" />
              <mxPoint x="405" y="410" />
            </Array>
          </mxGeometry>
        </mxCell>
        <mxCell id="hoon6yf5Zem_sgQZUW1o-12" value="&lt;div&gt;Mengubah&lt;/div&gt;&lt;div&gt;password&lt;/div&gt;" style="ellipse;whiteSpace=wrap;html=1;aspect=fixed;align=center;" parent="ebMU4DQLJZY_eesiqW59-1" vertex="1">
          <mxGeometry x="630" y="427.5" width="80" height="80" as="geometry" />
        </mxCell>
        <mxCell id="hoon6yf5Zem_sgQZUW1o-14" value="&lt;div&gt;-oldPW&lt;/div&gt;&lt;div&gt;-newPW&lt;br&gt;&lt;/div&gt;" style="text;html=1;align=center;verticalAlign=middle;resizable=0;points=[];autosize=1;strokeColor=none;fillColor=none;" parent="ebMU4DQLJZY_eesiqW59-1" vertex="1">
          <mxGeometry x="750" y="435" width="60" height="30" as="geometry" />
        </mxCell>
        <mxCell id="hoon6yf5Zem_sgQZUW1o-17" value="mahasiswaStatus" style="text;whiteSpace=wrap;html=1;" parent="ebMU4DQLJZY_eesiqW59-1" vertex="1">
          <mxGeometry x="70" y="414" width="160" height="30" as="geometry" />
        </mxCell>
        <mxCell id="hoon6yf5Zem_sgQZUW1o-28" style="edgeStyle=orthogonalEdgeStyle;rounded=0;orthogonalLoop=1;jettySize=auto;html=1;exitX=1;exitY=1;exitDx=0;exitDy=0;entryX=0;entryY=1;entryDx=0;entryDy=0;startArrow=none;startFill=0;endArrow=classic;endFill=1;" parent="ebMU4DQLJZY_eesiqW59-1" source="hoon6yf5Zem_sgQZUW1o-18" target="hoon6yf5Zem_sgQZUW1o-12" edge="1">
          <mxGeometry relative="1" as="geometry" />
        </mxCell>
        <mxCell id="hoon6yf5Zem_sgQZUW1o-18" value="Mengecek password lama" style="ellipse;whiteSpace=wrap;html=1;aspect=fixed;align=center;" parent="ebMU4DQLJZY_eesiqW59-1" vertex="1">
          <mxGeometry x="327.5" y="427.5" width="80" height="80" as="geometry" />
        </mxCell>
        <mxCell id="hoon6yf5Zem_sgQZUW1o-20" value="oldPW" style="text;html=1;align=center;verticalAlign=middle;resizable=0;points=[];autosize=1;strokeColor=none;fillColor=none;" parent="ebMU4DQLJZY_eesiqW59-1" vertex="1">
          <mxGeometry x="315" y="330" width="50" height="20" as="geometry" />
        </mxCell>
        <mxCell id="hoon6yf5Zem_sgQZUW1o-25" value="oldPW" style="text;html=1;align=center;verticalAlign=middle;resizable=0;points=[];autosize=1;strokeColor=none;fillColor=none;" parent="ebMU4DQLJZY_eesiqW59-1" vertex="1">
          <mxGeometry x="470" y="440" width="50" height="20" as="geometry" />
        </mxCell>
        <mxCell id="hoon6yf5Zem_sgQZUW1o-27" value="newPW" style="text;html=1;align=center;verticalAlign=middle;resizable=0;points=[];autosize=1;strokeColor=none;fillColor=none;" parent="ebMU4DQLJZY_eesiqW59-1" vertex="1">
          <mxGeometry x="470" y="390" width="60" height="20" as="geometry" />
        </mxCell>
        <mxCell id="hoon6yf5Zem_sgQZUW1o-29" value="requestAcc" style="text;html=1;align=center;verticalAlign=middle;resizable=0;points=[];autosize=1;strokeColor=none;fillColor=none;" parent="ebMU4DQLJZY_eesiqW59-1" vertex="1">
          <mxGeometry x="460" y="480" width="80" height="20" as="geometry" />
        </mxCell>
      </root>
    </mxGraphModel>
  </diagram>
  <diagram id="GePQp1RSla1VrtA79m4G" name="DFD LV1 Proses6">
    <mxGraphModel dx="925" dy="437" grid="1" gridSize="10" guides="1" tooltips="1" connect="1" arrows="1" fold="1" page="1" pageScale="1" pageWidth="1169" pageHeight="827" math="0" shadow="0">
      <root>
        <mxCell id="xwPC0TkwFA-UvJMJ33AY-0" />
        <mxCell id="xwPC0TkwFA-UvJMJ33AY-1" parent="xwPC0TkwFA-UvJMJ33AY-0" />
        <mxCell id="V-j2Sbg8u40IPYMvAZ66-2" style="edgeStyle=orthogonalEdgeStyle;rounded=0;orthogonalLoop=1;jettySize=auto;html=1;" parent="xwPC0TkwFA-UvJMJ33AY-1" source="V-j2Sbg8u40IPYMvAZ66-0" target="V-j2Sbg8u40IPYMvAZ66-1" edge="1">
          <mxGeometry relative="1" as="geometry" />
        </mxCell>
        <UserObject label="Mahasiswa" lucidchartObjectId="E97oBelPyP44" id="V-j2Sbg8u40IPYMvAZ66-0">
          <mxCell style="html=1;overflow=block;blockSpacing=1;whiteSpace=wrap;;whiteSpace=wrap;fontSize=16.7;fontColor=#333333;spacing=0;strokeColor=#5e5e5e;strokeOpacity=100;rounded=1;absoluteArcSize=1;arcSize=9;strokeWidth=2.3;" parent="xwPC0TkwFA-UvJMJ33AY-1" vertex="1">
            <mxGeometry x="270" y="330" width="135" height="105" as="geometry" />
          </mxCell>
        </UserObject>
        <mxCell id="7SavBdtpU_7OzXoI4kJR-0" style="edgeStyle=orthogonalEdgeStyle;rounded=0;orthogonalLoop=1;jettySize=auto;html=1;entryX=0.46;entryY=0.013;entryDx=0;entryDy=0;entryPerimeter=0;" edge="1" parent="xwPC0TkwFA-UvJMJ33AY-1" source="V-j2Sbg8u40IPYMvAZ66-1" target="RWvjmz3s8zOYatE9YT-0-0">
          <mxGeometry relative="1" as="geometry">
            <mxPoint x="577.5" y="530" as="targetPoint" />
          </mxGeometry>
        </mxCell>
        <mxCell id="V-j2Sbg8u40IPYMvAZ66-1" value="Memasukkan username dan password" style="ellipse;whiteSpace=wrap;html=1;aspect=fixed;" parent="xwPC0TkwFA-UvJMJ33AY-1" vertex="1">
          <mxGeometry x="530" y="335" width="95" height="95" as="geometry" />
        </mxCell>
        <mxCell id="V-j2Sbg8u40IPYMvAZ66-3" value="&lt;div&gt;- Username&lt;/div&gt;&lt;div&gt;- Password&lt;br&gt;&lt;/div&gt;" style="text;html=1;align=center;verticalAlign=middle;resizable=0;points=[];autosize=1;strokeColor=none;fillColor=none;" parent="xwPC0TkwFA-UvJMJ33AY-1" vertex="1">
          <mxGeometry x="430" y="343" width="80" height="30" as="geometry" />
        </mxCell>
        <mxCell id="RWvjmz3s8zOYatE9YT-0-5" style="edgeStyle=orthogonalEdgeStyle;rounded=0;orthogonalLoop=1;jettySize=auto;html=1;entryX=1;entryY=0.5;entryDx=0;entryDy=0;" parent="xwPC0TkwFA-UvJMJ33AY-1" source="RWvjmz3s8zOYatE9YT-0-0" target="RWvjmz3s8zOYatE9YT-0-1" edge="1">
          <mxGeometry relative="1" as="geometry">
            <Array as="points">
              <mxPoint x="820" y="532" />
              <mxPoint x="580" y="532" />
            </Array>
          </mxGeometry>
        </mxCell>
        <UserObject label="dbProfile" lucidchartObjectId="w27o8zYO7qZE" id="RWvjmz3s8zOYatE9YT-0-0">
          <mxCell style="html=1;overflow=block;blockSpacing=1;whiteSpace=wrap;shape=partialRectangle;right=0;left=0;whiteSpace=wrap;fontSize=16.7;fontColor=#333333;spacing=0;strokeColor=#5e5e5e;strokeOpacity=100;rounded=1;absoluteArcSize=1;arcSize=9;strokeWidth=2.3;" parent="xwPC0TkwFA-UvJMJ33AY-1" vertex="1">
            <mxGeometry x="510" y="520" width="150" height="75" as="geometry" />
          </mxCell>
        </UserObject>
        <mxCell id="RWvjmz3s8zOYatE9YT-0-1" value="Pergi ke main page/error page" style="ellipse;whiteSpace=wrap;html=1;aspect=fixed;" parent="xwPC0TkwFA-UvJMJ33AY-1" vertex="1">
          <mxGeometry x="740" y="336" width="94" height="94" as="geometry" />
        </mxCell>
        <mxCell id="RWvjmz3s8zOYatE9YT-0-4" value="&lt;div&gt;Hasil verifikasi&lt;/div&gt;" style="text;html=1;align=center;verticalAlign=middle;resizable=0;points=[];autosize=1;strokeColor=none;fillColor=none;" parent="xwPC0TkwFA-UvJMJ33AY-1" vertex="1">
          <mxGeometry x="490" y="450" width="80" height="30" as="geometry" />
        </mxCell>
        <mxCell id="7SavBdtpU_7OzXoI4kJR-1" value="hasilVerifikasi" style="text;html=1;align=center;verticalAlign=middle;resizable=0;points=[];autosize=1;strokeColor=none;fillColor=none;" vertex="1" parent="xwPC0TkwFA-UvJMJ33AY-1">
          <mxGeometry x="680" y="540" width="90" height="20" as="geometry" />
        </mxCell>
      </root>
    </mxGraphModel>
  </diagram>
</mxfile>
